<svg width="375" height="274" viewBox="0 0 375 274" fill="none" xmlns="http://www.w3.org/2000/svg">
<g filter="url(#filter0_f_228_4680)">
<path d="M44.8229 96.6642C36.7678 107.589 33.2897 122.15 36.4279 135.549C39.2421 147.564 47.7082 159.848 58.9569 165.279C71.9843 171.579 87.3831 170.955 99.8649 178.97C108.9 184.772 115.114 194.669 124.615 199.626C137.761 206.495 156.804 209.191 168.82 198.156C183.926 184.274 172.408 163.698 162.14 150.868C149.294 134.821 144.291 112.261 129.192 98.2215C113.928 84.0243 89.462 75.8348 68.9409 80.4591C58.9965 82.6962 50.7042 88.7198 44.8388 96.6721L44.8229 96.6642Z" fill="#FFD45A"/>
</g>
<g filter="url(#filter1_f_228_4680)">
<path d="M47.5338 171.579C36.5934 174.536 38.5143 191.389 51.4072 192.899C56.4664 193.492 67.2724 193.002 70.2447 187.863C75.8888 178.093 59.3042 171.737 52.4349 171.192C50.5772 171.042 48.9488 171.192 47.5259 171.579H47.5338Z" fill="#FFD45A"/>
</g>
<g filter="url(#filter2_f_228_4680)">
<path opacity="0.68" d="M205.366 97.8707C201.77 86.7326 195.351 76.7724 187.051 70.8517C177.478 64.0139 165.059 61.2788 153.652 65.0732C140.933 69.3023 133.447 80.2269 127.432 91.8234C124.452 97.5624 121.859 103.586 117.922 108.677C111.456 117.048 101.97 122.218 93.2351 128.028C84.5002 133.838 75.8443 141.15 72.8088 151.371C69.9235 161.11 72.7456 171.774 77.4964 180.698C80.3106 185.979 83.9389 191.03 89.0218 194.026C94.1363 197.038 100.294 197.694 106.16 197.133C115.693 196.224 124.926 192.208 132.191 185.797C139.724 179.157 145.242 170.011 153.882 164.999C164.893 158.604 178.964 160.09 190.07 153.877C208.955 143.3 212.03 118.55 205.351 97.8707H205.366Z" fill="#F09CF4"/>
<path opacity="0.68" d="M91.1801 102.06C92.5556 107.396 97.3855 112.194 102.824 111.696C104.792 111.514 106.658 110.669 108.326 109.594C112.112 107.135 115.093 103.301 116.144 98.8824C117.195 94.4635 116.176 89.4992 113.164 86.1238C102.437 74.1005 88.0103 89.7364 91.1881 102.06H91.1801Z" fill="#F09CF4"/>
</g>
<g filter="url(#filter3_f_228_4680)">
<path d="M167.257 69.5196C156.836 79.0055 150.335 93.124 150.807 107.404C151.23 120.21 157.354 134.438 167.703 142.253C179.686 151.315 195.492 153.809 206.571 164.507C214.591 172.251 218.906 183.591 227.573 190.568C239.562 200.234 258.403 206.849 272.879 198.055C291.081 186.992 283.536 163.701 275.689 148.551C265.871 129.602 265.362 105.615 252.842 88.2523C240.186 70.6949 216.941 57.3843 195.107 57.9219C184.527 58.1786 174.86 62.6262 167.272 69.5309L167.257 69.5196Z" fill="#FFD45A"/>
</g>
<g filter="url(#filter4_f_228_4680)">
<path d="M154.793 146.346C143.053 147.133 141.583 164.683 154.403 168.84C159.434 170.472 170.536 172.169 174.606 167.542C182.339 158.741 166.745 148.899 159.861 146.948C158.001 146.417 156.312 146.239 154.785 146.345L154.793 146.346Z" fill="#FFD45A"/>
</g>
<g filter="url(#filter5_f_228_4680)">
<path opacity="0.68" d="M330.473 103.377C329.074 91.3053 324.563 79.8597 317.316 72.1445C308.959 63.2369 296.871 57.9282 284.485 59.4732C270.676 61.1941 260.834 70.7957 252.352 81.3802C248.151 86.6178 244.287 92.2238 239.244 96.6069C230.959 103.816 220.25 107.152 210.176 111.292C200.102 115.433 189.802 121.118 184.634 130.908C179.717 140.237 180.423 151.668 183.447 161.721C185.239 167.669 187.906 173.549 192.473 177.633C197.068 181.739 203.204 183.658 209.29 184.279C219.182 185.291 229.398 183.079 238.098 178.028C247.118 172.798 254.594 164.607 264.41 161.261C276.921 156.987 290.946 161.36 303.516 157.291C324.894 150.361 333.055 125.786 330.457 103.373L330.473 103.377Z" fill="#97EF78"/>
<path opacity="0.68" d="M213.361 84.4353C213.677 90.1475 217.62 96.0146 223.258 96.6129C225.299 96.8278 227.371 96.3458 229.287 95.5901C233.642 93.8566 237.456 90.5588 239.424 86.2734C241.393 81.9879 241.363 76.7262 238.983 72.6774C230.505 58.2555 212.638 71.2434 213.369 84.4369L213.361 84.4353Z" fill="#97EF78"/>
</g>
<path d="M187.5 139.99C80.1165 139.99 24.5623 204.498 0 246.341H375C363.57 226.582 310.798 139.99 187.5 139.99Z" fill="white"/>
<path d="M49.384 202.48C38.776 202.48 32.2 195.952 32.2 185.92C32.2 175.888 38.776 169.36 49.384 169.36C59.368 169.36 65.8 174.352 65.8 182.512V183.232H57.784V182.512C57.784 178.288 55.384 176.272 49.528 176.272C42.472 176.272 39.832 178.768 39.832 185.92C39.832 193.072 42.472 195.568 49.528 195.568C55.384 195.568 57.784 193.552 57.784 189.328V188.608H65.8V189.328C65.8 197.488 59.416 202.48 49.384 202.48ZM81.736 202.48C73.528 202.48 68.008 197.584 68.008 190C68.008 182.32 73.528 177.472 81.736 177.472C89.944 177.472 95.464 182.32 95.464 190C95.464 197.584 89.944 202.48 81.736 202.48ZM81.736 196.096C86.584 196.096 88.312 194.224 88.312 190C88.312 185.776 86.584 183.808 81.736 183.808C76.84 183.808 75.16 185.776 75.16 190C75.16 194.224 76.84 196.096 81.736 196.096ZM105.604 202H98.4044V177.952H105.076V185.248H105.46C106.036 181.216 108.436 177.472 114.484 177.472C120.052 177.472 122.884 180.88 123.412 185.344H123.844C124.42 181.264 126.868 177.472 133.06 177.472C139.252 177.472 142.276 181.552 142.276 187.024V202H135.076V189.424C135.076 185.44 133.684 183.952 129.556 183.952C125.188 183.952 123.94 185.68 123.94 189.856V202H116.74V189.424C116.74 185.44 115.348 183.952 111.22 183.952C106.852 183.952 105.604 185.68 105.604 189.856V202ZM153.136 175.504H145.936V169.84H153.136V175.504ZM153.136 202H145.936V177.952H153.136V202ZM164.104 202H156.904V177.952H163.576V185.344H164.008C164.632 181.312 167.512 177.472 173.8 177.472C180.376 177.472 183.496 181.696 183.496 187.024V202H176.296V189.424C176.296 185.584 174.712 183.952 170.296 183.952C165.736 183.952 164.104 185.776 164.104 189.856V202ZM197.699 199.552C190.547 199.552 186.419 195.28 186.419 188.512C186.419 181.792 190.787 177.472 197.987 177.472C202.883 177.472 206.387 179.584 207.155 183.76H207.539V177.952H214.259V198.496C214.259 206.896 209.171 210.64 200.579 210.64C192.803 210.64 187.907 207.184 187.907 201.136H195.107C195.107 203.824 196.163 204.64 201.059 204.64C205.667 204.64 207.059 203.68 207.059 198.976V193.552H206.675C205.907 197.104 203.075 199.552 197.699 199.552ZM193.667 188.512C193.667 192.064 195.683 193.36 200.195 193.36C204.803 193.36 207.059 192.064 207.059 188.752V188.224C207.059 184.96 204.755 183.712 200.291 183.712C195.683 183.712 193.667 184.96 193.667 188.512ZM240.075 202.48C230.331 202.48 224.859 198.64 224.859 191.152V190.864H232.059V191.728C232.059 194.704 233.547 195.904 240.075 195.904C245.835 195.904 247.179 195.04 247.179 192.88C247.179 190.912 246.075 190.192 242.763 189.616L233.739 188.32C227.979 187.408 224.571 184.528 224.571 179.296C224.571 174.448 228.507 169.36 239.307 169.36C249.195 169.36 253.803 173.92 253.803 180.688V180.976H246.555V180.304C246.555 177.232 244.971 175.936 238.587 175.936C233.403 175.936 231.819 176.944 231.819 179.008C231.819 180.88 232.875 181.552 235.562 182.032L244.587 183.472C251.786 184.624 254.379 188.128 254.379 192.544C254.379 197.776 250.299 202.48 240.075 202.48ZM270.127 202.48C261.919 202.48 256.399 197.584 256.399 190C256.399 182.32 261.919 177.472 270.127 177.472C278.335 177.472 283.855 182.32 283.855 190C283.855 197.584 278.335 202.48 270.127 202.48ZM270.127 196.096C274.975 196.096 276.703 194.224 276.703 190C276.703 185.776 274.975 183.808 270.127 183.808C265.231 183.808 263.551 185.776 263.551 190C263.551 194.224 265.231 196.096 270.127 196.096ZM299.611 202.48C291.403 202.48 285.883 197.584 285.883 190C285.883 182.32 291.403 177.472 299.611 177.472C307.819 177.472 313.339 182.32 313.339 190C313.339 197.584 307.819 202.48 299.611 202.48ZM299.611 196.096C304.459 196.096 306.187 194.224 306.187 190C306.187 185.776 304.459 183.808 299.611 183.808C294.715 183.808 293.035 185.776 293.035 190C293.035 194.224 294.715 196.096 299.611 196.096ZM323.479 202H316.279V177.952H322.951V185.344H323.383C324.007 181.312 326.887 177.472 333.175 177.472C339.751 177.472 342.871 181.696 342.871 187.024V202H335.671V189.424C335.671 185.584 334.087 183.952 329.671 183.952C325.111 183.952 323.479 185.776 323.479 189.856V202Z" fill="#292525"/>
<path d="M235.64 113.126C234.107 114.623 233.755 117.113 233.87 119.361C233.986 121.614 234.465 123.862 234.208 126.1C233.956 128.307 232.993 130.389 232.963 132.617C232.928 135.253 234.208 137.823 233.83 140.429C233.659 141.594 233.165 142.672 232.928 143.827C232.343 146.674 233.548 149.86 235.801 151.407H240.544C240.544 151.407 243.024 148.63 242.661 146.039C242.469 144.688 241.28 141.266 241.118 139.915C240.892 138.045 241.814 136.876 242.111 135.016C242.54 132.309 242.792 128.454 243.326 125.772C243.901 122.879 243.563 120.57 242.958 117.682C242.353 114.794 238.336 112.904 235.655 113.131L235.64 113.126Z" fill="#5B4565"/>
<path d="M230.499 155.001C231.84 154.184 233.669 154.179 234.708 152.995C235.383 152.219 235.534 151.145 235.58 150.092H240.222L240.383 157.965H228.811C228.957 156.79 229.501 155.611 230.504 155.001H230.499Z" fill="#F58764"/>
<path d="M234.904 154.426L233.004 153.59C232.883 153.534 232.827 153.393 232.883 153.272C232.933 153.151 233.074 153.096 233.195 153.146L235.096 153.983C235.217 154.038 235.272 154.179 235.217 154.3C235.166 154.421 235.025 154.477 234.904 154.426Z" fill="#FFBB8B"/>
<path d="M236.094 153.655L234.194 152.818C234.073 152.763 234.017 152.622 234.073 152.501C234.123 152.38 234.264 152.324 234.385 152.375L236.286 153.211C236.406 153.267 236.462 153.408 236.406 153.529C236.356 153.65 236.215 153.705 236.094 153.655Z" fill="#FFBB8B"/>
<path d="M239.965 113.469C240.368 115.58 241.246 117.617 242.082 119.583C242.929 121.568 243.872 123.514 244.905 125.409C246.417 128.171 248.126 130.827 250.016 133.343C251.039 134.698 252.163 136.059 253.69 136.785C255.495 137.642 257.647 137.486 259.527 136.8C261.402 136.115 263.065 134.945 264.693 133.781C265.086 133.499 265.52 133.151 265.56 132.667C265.585 132.345 265.429 132.042 265.278 131.76C264.617 130.55 263.892 129.361 262.909 128.403C261.926 127.445 260.651 126.735 259.285 126.669C257.838 126.604 256.326 127.239 254.99 126.694C253.967 126.276 253.312 125.253 252.919 124.21C252.329 122.642 252.188 120.948 251.916 119.295C251.644 117.642 251.215 115.948 250.162 114.653C249.184 113.453 247.748 112.702 246.256 112.335C245.031 112.032 243.756 111.876 242.496 111.916C241.644 111.946 239.965 111.931 239.905 113.126" fill="#5B4565"/>
<path d="M250.711 113.327C250.192 110.354 249.41 105.908 248.604 101.432C248.372 100.157 248.14 98.8768 247.913 97.6318C247.772 96.8707 247.636 96.1197 247.5 95.3889C247.429 95.0159 247.364 94.6429 247.293 94.28C247.162 93.5995 247.036 92.9393 246.915 92.3042C246.759 91.4725 246.603 90.6862 246.462 89.9655C246.376 89.5471 246.295 89.154 246.225 88.781C245.932 87.3546 245.696 86.281 245.534 85.7316C245.499 85.5502 245.454 85.3737 245.403 85.2024C245.262 85.152 245.116 85.1016 244.975 85.0461C244.138 84.8546 243.332 84.5572 242.586 84.1036C242.344 83.9574 242.117 83.7911 241.9 83.6197C240.988 83.025 240.242 82.2588 239.803 81.1953C239.289 81.16 238.765 81.1752 238.216 81.2457C237.954 81.281 237.697 81.3213 237.434 81.3768C237.182 81.4322 236.935 81.4977 236.689 81.5784C236.401 81.6641 236.129 81.7598 235.867 81.8606C235.852 81.8657 235.842 81.8707 235.827 81.8758C235.766 82.1177 235.67 82.3647 235.509 82.6116C233.377 85.9584 230.363 87.0925 230.711 91.5784C230.721 91.7296 230.736 91.8758 230.751 92.027C230.776 92.2336 230.796 92.4403 230.822 92.6419C230.872 93.0955 230.938 93.5441 231.013 94.0028C231.074 94.3758 231.139 94.7437 231.205 95.1116C231.472 96.5784 231.789 98.0451 232.062 99.4514C232.606 102.279 232.959 107.642 233.392 111.891C233.543 113.363 233.705 114.698 233.886 115.762C233.906 115.893 233.931 116.019 233.957 116.14C235.973 116.19 238.201 116.251 240.484 116.336C242.334 116.402 244.219 116.483 246.053 116.578C247.898 116.674 249.688 116.795 251.336 116.936H251.351C251.351 116.936 251.109 115.535 250.726 113.327H250.711Z" fill="#FCA443"/>
<path d="M249.657 107.339C246.577 107.027 243.503 106.795 240.408 106.629C238.755 106.538 237.097 106.447 235.443 106.291C234.587 106.21 233.71 106.044 232.833 105.953C233.014 107.944 233.19 110.026 233.382 111.896C233.533 113.367 233.694 114.703 233.876 115.767C233.896 115.898 233.846 119.249 233.871 119.37C235.887 119.421 240.312 120.958 242.601 121.039C244.45 121.104 247.056 121.694 248.886 121.79C250.731 121.886 251.285 120.535 251.32 116.941H251.336C251.336 116.941 251.094 115.54 250.711 113.332C250.423 111.699 250.06 109.622 249.657 107.344V107.339Z" fill="#5B4565"/>
<path d="M236.608 78.8617C236.633 78.6349 236.663 78.398 236.699 78.146L238.191 78.2317C238.18 78.3879 238.165 78.5291 238.155 78.6702C237.641 78.7256 237.122 78.7912 236.608 78.8617Z" fill="#FAFAFA"/>
<path d="M247.001 92.309L230.786 92.0318L230.826 89.7031L246.547 89.9703C246.688 90.691 246.845 91.4773 247.001 92.309Z" fill="#FAFAFA"/>
<path d="M246.391 95.3689L231.27 95.1118C231.209 94.7439 231.149 94.3709 231.093 94.0029L246.204 94.26C246.27 94.6279 246.33 94.9959 246.396 95.3689H246.391Z" fill="#FAFAFA"/>
<path d="M247.908 97.6318C247.767 96.8707 247.631 96.1197 247.495 95.3889C247.425 95.0159 247.359 94.6429 247.288 94.28C247.157 93.5995 247.031 92.9393 246.91 92.3042C246.754 91.4725 246.598 90.6862 246.457 89.9655C246.371 89.5471 246.29 89.154 246.22 88.781C245.928 87.3546 245.691 86.281 245.529 85.7316C245.494 85.5502 245.449 85.3737 245.398 85.2024C245.257 85.152 245.111 85.1016 244.97 85.0461C244.133 84.8546 243.327 84.5572 242.581 84.1036C242.339 83.9574 242.112 83.7911 241.895 83.6197C240.983 83.025 240.237 82.2588 239.799 81.1953C239.284 81.16 238.76 81.1752 238.221 81.2457L237.818 105.253C237.737 110.041 241.548 114.023 246.29 114.104L246.981 114.114C248.312 114.139 249.577 113.852 250.711 113.322C250.192 110.349 249.41 105.903 248.604 101.427C248.372 100.152 248.14 98.8717 247.913 97.6268L247.908 97.6318Z" fill="#423245"/>
<path d="M235.862 81.6541C235.822 81.9666 235.711 82.2891 235.499 82.6168C234.793 83.7256 233.906 84.643 232.944 85.4847C232.369 86.4676 231.527 87.3295 230.61 88.1057C230.429 89.2901 230.423 90.5502 230.524 91.8506C230.534 92.0119 230.549 92.1682 230.565 92.3244C230.59 92.5412 230.61 92.7579 230.64 92.9746C230.696 93.4535 230.761 93.9323 230.837 94.4111C230.897 94.8043 230.968 95.1924 231.038 95.5855C231.316 97.1379 231.648 98.6903 231.936 100.182C232.505 103.176 232.873 108.857 233.327 113.353C234.834 112.803 235.927 111.347 235.953 109.628L236.386 83.7206C236.396 82.9696 236.205 82.2639 235.857 81.6541H235.862Z" fill="#423245"/>
<path d="M238.851 75.3384C238.871 75.0763 238.16 78.6095 238.191 78.2265L236.699 78.1408C236.613 78.786 235.791 79.0329 235.761 79.4311C235.711 80.1015 236.18 81.8757 235.62 83.1458C236.099 82.4553 236.633 82.0722 237.173 82.1025C237.707 82.1327 238.171 82.5662 238.538 83.287C238.544 83.2517 239.95 83.171 239.955 83.1358C239.788 82.5914 238.816 75.8575 238.851 75.3384Z" fill="#FF6D5C"/>
<path d="M237.652 85.2933C237.858 85.3033 238.07 85.2933 238.266 85.2529C238.266 85.2529 238.282 85.2529 238.287 85.2529C239.244 85.0412 239.995 84.265 240.071 83.2922C240.106 82.7429 239.925 82.2287 239.592 81.8306C239.274 81.4475 238.821 81.1753 238.287 81.0745C238.191 81.0543 238.08 81.0493 237.974 81.0342C237.374 80.9989 236.805 81.1904 236.371 81.5332C236.276 81.6088 236.185 81.6894 236.104 81.7852C235.792 82.1229 235.59 82.5564 235.56 83.0302C235.469 84.2096 236.407 85.2227 237.652 85.2933Z" fill="#FF6D5C"/>
<path d="M236.225 73.141L237.666 74.0482C237.777 74.1188 237.928 74.0886 238.004 73.9827L238.08 73.8819C238.155 73.7761 238.125 73.6299 238.014 73.5644L236.573 72.6571C236.462 72.5865 236.31 72.6168 236.235 72.7226L236.164 72.8234C236.089 72.9293 236.119 73.0754 236.23 73.141H236.225Z" fill="#D39933"/>
<path d="M232.959 76.4321L233.155 76.4421C233.589 76.4673 233.967 76.1548 233.997 75.7466L234.103 74.3151C234.133 73.9069 233.806 73.554 233.372 73.5288L233.176 73.5188C232.742 73.4936 232.364 73.8061 232.334 74.2143L232.228 75.6458C232.198 76.054 232.525 76.4069 232.959 76.4321Z" fill="#FF6D5C"/>
<path d="M234.899 79.9805C236.321 80.3182 238.14 79.6075 238.443 77.8989L238.831 72.7729C238.931 71.4019 237.828 70.2124 236.376 70.1267C234.924 70.041 233.649 71.0995 233.548 72.4704C233.548 72.4704 233.165 77.5763 233.16 77.5964C233.059 78.9472 233.876 79.7386 234.899 79.9805Z" fill="#EDC59C"/>
<path d="M234.899 79.9805C236.321 80.3182 238.14 79.6075 238.443 77.8989L238.831 72.7729C238.931 71.4019 237.828 70.2124 236.376 70.1267C234.924 70.041 233.649 71.0995 233.548 72.4704C233.548 72.4704 233.165 77.5763 233.16 77.5964C233.059 78.9472 233.876 79.7386 234.899 79.9805Z" fill="#FF6D5C"/>
<path d="M238.583 76.0493C238.664 76.0796 238.563 77.6068 238.553 77.7429C238.493 78.5493 238.115 79.1542 237.414 79.5977C236.663 80.0715 235.71 80.1925 234.859 79.9808C233.861 79.7388 233.069 78.9475 233.165 77.5967C233.165 77.5866 233.215 76.9062 233.281 76.0493H238.588H238.583Z" fill="#423245"/>
<path d="M236.134 76.7598C235.998 77.3243 235.519 77.914 235.015 77.8787C234.516 77.8434 234.123 77.3848 234.057 76.8051L236.134 76.7598Z" fill="#FAFAFA"/>
<path d="M237.576 76.9462C237.46 76.049 237.253 75.0914 237.389 74.164C237.475 73.5843 237.838 72.9795 238.055 72.4351C237.304 72.3444 236.472 72.6972 235.681 72.672C234.476 72.6317 233.518 72.3293 232.425 71.8101C231.593 71.417 231.21 70.8323 230.575 70.2224C229.859 69.537 229.874 68.5994 229.955 67.6166C230.096 65.913 232.183 64.5319 233.377 66.1347C234.244 67.3041 233.987 69.174 235.706 69.3051C236.598 69.3757 237.495 68.9775 237.828 70.0863C238.609 70.1972 239.138 69.8545 239.39 70.8323C239.592 71.6035 239.315 72.4049 239.143 73.1559C238.886 74.29 238.523 75.6509 238.594 76.8051C238.221 76.9361 237.893 77.2234 237.576 76.9361V76.9462Z" fill="#423245"/>
<path d="M266.412 140.762C265.761 139.32 265.968 137.486 264.92 136.311C264.234 135.54 263.196 135.268 262.163 135.102L262.697 130.444L270.459 131.19L269.128 142.803C267.994 142.521 266.895 141.841 266.412 140.762Z" fill="#F58764"/>
<path d="M266.351 136.281L265.308 138.09C265.242 138.206 265.096 138.242 264.98 138.176C264.869 138.111 264.829 137.959 264.894 137.848L265.938 136.039C266.003 135.923 266.149 135.888 266.265 135.953C266.376 136.019 266.417 136.17 266.351 136.281Z" fill="#FFBB8B"/>
<path d="M265.726 134.996L264.682 136.805C264.617 136.921 264.47 136.956 264.355 136.891C264.244 136.825 264.203 136.674 264.269 136.563L265.312 134.754C265.378 134.638 265.524 134.602 265.64 134.668C265.751 134.733 265.791 134.885 265.726 134.996Z" fill="#FFBB8B"/>
<path d="M262.263 97.0068C261.3 96.7951 260.186 96.7296 259.551 95.9685C259.103 95.4292 259.022 94.6832 258.81 94.0129C258.236 92.148 256.477 90.7115 254.551 90.5351C253.488 90.4343 252.344 90.6712 251.401 90.1621C250.065 89.4413 249.536 87.6369 248.463 86.5935C248.392 86.523 248.316 86.4574 248.241 86.3869C248.075 86.2911 247.908 86.2004 247.732 86.1197C246.87 85.7165 245.892 85.3889 244.919 85.031C244.506 84.9353 244.098 84.8193 243.705 84.6631C240.61 85.3435 241.497 89.9403 243.281 91.7498C244.41 92.8939 245.827 93.6953 247.152 94.6076C248.478 95.5149 249.763 96.5986 250.428 98.0653C250.937 99.1893 251.043 100.449 251.391 101.629C251.739 102.813 252.445 104.013 253.614 104.386C254.4 104.638 255.257 104.467 256.074 104.577C257.132 104.719 258.11 105.369 258.664 106.286C259.098 107.002 259.294 107.884 259.904 108.453C260.398 108.912 261.089 109.094 261.759 109.129C264.748 109.28 267.475 106.488 267.525 103.469C267.581 100.449 265.186 97.652 262.263 97.0119V97.0068Z" fill="#423245"/>
<path d="M234.793 90.8978C234.803 89.2345 234.859 87.3242 233.81 86.0187C232.419 84.2899 229.713 89.1337 229.526 90.1821C229.224 91.9008 229.546 93.8312 228.543 95.2526C228.075 95.9179 227.374 96.3716 226.814 96.9562C226.245 97.556 225.827 98.2919 225.222 98.8564C224.622 99.426 223.735 99.8091 222.974 99.4915C222.046 99.1034 221.779 97.9441 221.32 97.0419C220.59 95.6054 219.067 94.6125 217.475 94.5318C215.882 94.4512 214.264 95.2829 213.397 96.6387C212.964 97.3141 212.712 98.0903 212.555 98.8766C212.162 100.832 212.46 103.141 214.027 104.355C215.247 105.298 216.915 105.358 218.311 106.009C219.647 106.629 220.665 107.753 221.794 108.705C222.918 109.658 224.304 110.49 225.766 110.323C227.102 110.167 228.19 109.219 229.193 108.312C230.796 106.855 232.576 105.666 233.538 103.64C235.388 99.7486 234.768 95.0712 234.793 90.9028V90.8978Z" fill="#423245"/>
<path d="M234.022 72.0824C233.16 72.0068 232.344 71.664 231.567 71.281C229.511 70.2628 228.014 68.8969 227.117 66.7195C226.356 64.8697 226.038 62.6066 226.774 60.6963C227.545 58.6902 230.075 56.9413 232.102 58.3324C232.898 58.8767 233.422 59.7588 233.72 60.6812C234.375 62.7074 234.193 64.8798 234.395 66.9715C234.43 67.3394 234.536 67.778 234.889 67.8788C235.04 67.9241 235.201 67.8888 235.358 67.8788C236.235 67.8384 236.965 68.7709 236.88 69.653C236.789 70.535 236.038 71.2558 235.186 71.4826" fill="#423245"/>
<path d="M239.078 76.2358L239.275 76.2459C239.708 76.2711 240.086 75.9586 240.116 75.5503L240.222 74.1188C240.252 73.7106 239.925 73.3578 239.491 73.3325L239.295 73.3225C238.861 73.2973 238.483 73.6098 238.453 74.018L238.347 75.4495C238.317 75.8578 238.645 76.2106 239.078 76.2358Z" fill="#FF6D5C"/>
<path d="M241.417 103.584C242.425 105.091 243.705 106.387 245.192 107.425C245.378 107.551 245.656 107.46 245.761 107.274C245.882 107.067 245.797 106.835 245.61 106.704C244.244 105.757 243.06 104.547 242.132 103.166C242.006 102.98 241.764 102.899 241.563 103.015C241.376 103.121 241.291 103.398 241.412 103.584H241.417Z" fill="#56415B"/>
<path d="M233.729 105.696C234.228 104.638 234.586 103.529 234.793 102.38C234.833 102.158 234.732 101.931 234.501 101.87C234.299 101.815 234.027 101.941 233.991 102.163C233.8 103.241 233.477 104.295 233.014 105.283C232.918 105.484 232.958 105.731 233.165 105.852C233.346 105.958 233.639 105.908 233.734 105.701L233.729 105.696Z" fill="#56415B"/>
<path d="M241.875 85.5149C243.881 86.3314 245.751 87.2135 247.132 88.9373C247.706 89.653 248.246 90.4141 249.002 90.9534C249.758 91.4927 250.569 91.6641 251.436 91.7649C252.389 91.8758 253.427 91.8556 254.294 92.3143C255.161 92.773 255.625 93.7508 256.018 94.6379C256.673 96.1097 257.626 97.9443 259.506 97.8687C260.04 97.8486 260.04 97.0169 259.506 97.0371C257.48 97.1228 256.96 94.3808 256.144 93.0401C255.695 92.2992 255.085 91.7195 254.274 91.402C253.462 91.0845 252.515 91.0542 251.628 90.9585C250.584 90.8476 249.697 90.5703 248.941 89.8143C248.286 89.1591 247.787 88.3728 247.157 87.6974C245.791 86.2357 243.906 85.4595 242.091 84.7185C241.598 84.5169 241.381 85.3183 241.87 85.5199L241.875 85.5149Z" fill="#56415B"/>
<path d="M261.179 98.66C262.374 98.9927 263.473 99.7084 264.234 100.696C264.37 100.873 264.592 100.969 264.803 100.848C264.98 100.747 265.091 100.459 264.955 100.278C264.057 99.1137 262.822 98.2518 261.401 97.8586C260.887 97.7175 260.665 98.5189 261.179 98.66Z" fill="#56415B"/>
<path d="M233.634 86.4825C232.132 87.1529 231.522 88.8112 231.285 90.3333C231.023 92.0269 231.215 94.1237 229.95 95.4644C229.284 96.17 228.312 96.4926 227.651 97.2134C227.152 97.7577 226.784 98.4079 226.401 99.0329C226.018 99.6579 225.625 100.333 224.97 100.661C224.022 101.135 223.07 100.59 222.379 99.9301C221.003 98.6297 220.041 96.4876 217.863 96.5027C217.329 96.5027 217.329 97.3394 217.863 97.3344C219.869 97.3192 220.852 99.8192 222.238 100.903C223.508 101.896 225.116 101.936 226.235 100.706C226.739 100.147 227.097 99.4815 227.49 98.8464C227.999 98.0249 228.554 97.4452 229.38 96.9261C230.136 96.4473 230.797 95.913 231.21 95.1015C231.623 94.29 231.764 93.4684 231.875 92.6116C232.107 90.7517 232.031 88.1055 234.058 87.1983C234.547 86.9815 234.123 86.2658 233.639 86.4825H233.634Z" fill="#56415B"/>
<path d="M248.332 113.327C248.695 115.515 249.063 117.697 249.426 119.885C249.753 121.846 250.111 123.857 251.069 125.626C251.825 127.017 252.984 128.257 254.461 128.867C256.169 129.572 258.004 128.988 259.733 129.492C262.298 130.243 262.092 133.338 261.411 135.349C261.24 135.858 262.041 136.074 262.213 135.57C262.797 133.831 263.06 131.805 261.986 130.192C260.912 128.579 259.244 128.469 257.525 128.474C256.573 128.474 255.625 128.469 254.733 128.091C253.841 127.713 253.155 127.113 252.576 126.402C251.255 124.789 250.761 122.692 250.398 120.691C249.945 118.171 249.552 115.641 249.128 113.116C249.042 112.592 248.241 112.813 248.327 113.338L248.332 113.327Z" fill="#423245"/>
<path d="M235.02 149.85C236.699 150.641 239.355 151.518 240.519 149.421C241.033 148.499 240.978 147.274 240.862 146.261C240.736 145.097 240.444 143.957 240.141 142.823C239.839 141.689 239.516 140.51 239.41 139.325C239.3 138.055 239.511 136.886 239.96 135.696C240.408 134.507 240.862 133.418 241.013 132.173C241.164 130.928 241.079 129.552 241.013 128.242C240.887 125.812 240.882 122.959 242.883 121.231C243.286 120.883 242.697 120.293 242.293 120.641C238.71 123.736 240.917 128.897 240.061 132.854C239.809 134.018 239.259 135.076 238.901 136.205C238.584 137.219 238.483 138.272 238.574 139.325C238.765 141.553 239.632 143.645 239.97 145.848C240.146 147.002 240.383 148.902 239.204 149.613C238.024 150.323 236.563 149.668 235.429 149.134C234.95 148.907 234.526 149.623 235.01 149.85H235.02Z" fill="#423245"/>
<path d="M228.539 158.624H240.615C241.684 158.624 241.689 156.961 240.615 156.961H228.539C227.47 156.961 227.465 158.624 228.539 158.624Z" fill="#FFE4C6"/>
<path d="M269.708 130.525C269.012 134.578 268.478 138.66 268.115 142.758C268.019 143.821 269.682 143.816 269.778 142.758C270.131 138.806 270.64 134.875 271.315 130.964C271.497 129.915 269.894 129.467 269.713 130.52L269.708 130.525Z" fill="#FFE4C6"/>
<path d="M238.407 69.5473C238.407 70.1471 237.924 70.631 237.334 70.631C236.744 70.631 236.26 70.1471 236.26 69.5473C236.26 68.9475 236.744 68.4636 237.334 68.4636C237.924 68.4636 238.407 68.9475 238.407 69.5473Z" fill="#423245"/>
<path d="M236.008 81.8355C235.136 82.6773 234.511 83.8365 234.526 85.0563C234.546 86.2761 235.312 87.5059 236.467 87.8486C237.394 88.1208 238.387 87.8184 239.264 87.4101C240.353 86.9011 241.366 86.2257 242.253 85.4091C243.427 84.3355 244.491 82.9646 246.033 82.6118C247.883 82.1884 250.872 81.9918 251.27 79.5876C251.789 76.4374 247.203 75.9132 245.181 76.9061C243.629 77.6672 242.424 78.9878 241.336 80.3386C240.963 80.7972 240.484 81.3164 239.904 81.2257" stroke="#FFE4C6" stroke-width="0.332661" stroke-miterlimit="10"/>
<path d="M224.717 112.173C224.717 112.173 217.101 129.603 216.794 129.215C216.481 128.827 211.94 127.667 211.94 127.667L199.092 119.195L208.77 102.819L224.717 112.168V112.173Z" fill="#F9473E"/>
<path d="M217.702 110.394C218.926 108.579 219.935 106.618 220.716 104.577C222.198 100.706 221.86 98.3977 221.86 98.3977" stroke="#56415B" stroke-width="0.332661" stroke-linecap="round" stroke-linejoin="round"/>
<path d="M216.79 129.215L215.469 125.883" stroke="#56415B" stroke-width="0.332661" stroke-linecap="round" stroke-linejoin="round"/>
<path d="M213.236 103.433L211.436 106.921C211.396 107.001 211.426 107.102 211.507 107.148C211.532 107.163 211.557 107.168 211.582 107.168C211.643 107.168 211.698 107.137 211.729 107.077L213.457 103.725C213.377 103.634 213.301 103.539 213.236 103.433Z" fill="#56415B"/>
<path d="M273.976 107.501C273.427 107.834 263.498 116.967 263.498 116.967C263.498 116.967 274.637 132.34 274.858 131.891C275.08 131.442 279.269 129.331 279.269 129.331L287.101 117.41L275.63 106.16L273.976 107.496V107.501Z" fill="#FCA443"/>
<path d="M265.595 115.187L275.963 128.665L279.269 129.335L267.072 113.574" stroke="#56415B" stroke-width="0.332661" stroke-linecap="round" stroke-linejoin="round"/>
<path d="M274.764 131.856L276.054 128.615" stroke="#56415B" stroke-width="0.322581" stroke-linecap="round" stroke-linejoin="round"/>
<path d="M265.403 107.521L270.116 113.741" stroke="#56415B" stroke-width="0.332661" stroke-linecap="round" stroke-linejoin="round"/>
<path d="M273.206 109.95L266.699 106.498" stroke="#56415B" stroke-width="0.332661" stroke-linecap="round" stroke-linejoin="round"/>
<path d="M211.149 93.9017C211.467 93.5186 214.496 95.6406 214.496 95.6406C214.496 95.6406 213.987 93.8311 214.345 93.7001C214.949 93.4834 216.189 97.2838 216.189 97.2838L215.237 99.2545C215.237 99.2545 214.466 98.9723 213.553 98.6144C212.974 98.5287 212.424 98.2465 212.021 97.818C211.835 97.6215 211.673 97.3795 211.643 97.1073C211.613 96.8352 211.749 96.5328 212.006 96.442C211.27 96.2303 211.557 95.3533 212.097 95.0257C211.774 94.7787 211.467 94.5166 211.285 94.2948C211.235 94.1789 211.184 94.063 211.129 93.9521C211.129 93.9319 211.139 93.9168 211.154 93.9017H211.149Z" fill="#FF735E"/>
<path d="M267.889 110.374C267.455 110.616 265.404 107.521 265.404 107.521C265.404 107.521 265.222 109.396 264.844 109.381C264.204 109.361 264.426 105.364 264.426 105.364L266.029 103.882C266.029 103.882 266.644 104.426 267.359 105.102C267.868 105.394 268.277 105.858 268.498 106.407C268.599 106.659 268.665 106.947 268.594 107.209C268.524 107.471 268.287 107.708 268.015 107.698C268.624 108.166 268.04 108.877 267.42 108.983C267.626 109.331 267.823 109.689 267.909 109.961C267.909 110.087 267.919 110.213 267.934 110.339C267.924 110.354 267.909 110.369 267.894 110.379L267.889 110.374Z" fill="#FF735E"/>
<path d="M220.942 110.288L211.94 127.667L215.469 125.883L222.913 111.175" stroke="#56415B" stroke-width="0.332661" stroke-linecap="round" stroke-linejoin="round"/>
<path d="M121.306 156.697C121.134 156.974 120.978 157.261 120.842 157.574C120.635 158.042 120.474 158.577 120.126 158.945C119.486 159.615 118.387 159.575 117.868 158.753C117.309 157.866 117.843 157.06 117.843 156.132C117.843 155.089 116.714 154.978 115.933 155.245C115.287 156.49 113.78 156.964 112.46 157.155C110.983 157.367 109.29 157.604 108.463 159.02C107.929 159.943 107.793 161.147 107.979 162.236H121.593C121.739 161.112 121.734 159.968 121.593 158.844C121.497 158.128 121.351 157.423 121.311 156.702L121.306 156.697Z" fill="#5B4565"/>
<path d="M115.036 157.523L113.513 155.784C113.382 155.633 113.382 155.391 113.513 155.24C113.644 155.089 113.856 155.089 113.987 155.24L115.509 156.979C115.64 157.13 115.64 157.372 115.509 157.523C115.378 157.675 115.167 157.675 115.036 157.523Z" fill="#FFE4C6"/>
<path d="M113.089 158.526L111.567 156.787C111.436 156.636 111.436 156.394 111.567 156.243C111.698 156.092 111.91 156.092 112.041 156.243L113.563 157.982C113.694 158.133 113.694 158.375 113.563 158.526C113.432 158.678 113.22 158.678 113.089 158.526Z" fill="#FFE4C6"/>
<path d="M121.103 161.934H106.88C106.462 161.934 106.124 162.272 106.124 162.69V162.79C106.124 163.208 106.462 163.546 106.88 163.546H121.103C121.521 163.546 121.859 163.208 121.859 162.79V162.69C121.859 162.272 121.521 161.934 121.103 161.934Z" fill="#FFE4C6"/>
<path d="M131.809 83.1835C133.079 83.7833 134.521 83.8438 135.912 83.7984C136.779 83.7681 137.661 83.7026 138.497 83.9345C139.949 84.3377 141.038 85.5625 142.197 86.5706C143.356 87.5786 144.868 88.4506 146.3 87.9718C147.943 87.4173 148.886 85.3155 150.791 85.5323C151.673 85.6331 152.56 86.4597 153.467 86.6966C157.661 87.8054 161.764 84.2419 162.504 79.9022C163.301 75.25 158.306 72.9113 154.637 73.2188C153.321 73.3296 152.006 73.7581 150.947 74.6149C149.914 75.4567 149.248 76.9385 147.842 77.1754C146.315 77.4325 144.964 75.7137 143.487 76.4849C142.258 77.125 142.006 79.2067 140.66 79.5091C139.526 79.7611 138.649 78.5565 137.812 77.7147C136.244 76.1421 133.119 75.1794 131.194 76.5403C128.608 78.37 129.067 81.8831 131.814 83.1835H131.809Z" fill="#423245"/>
<path d="M151.285 139.086C152.278 138.491 153.533 138.804 154.456 139.534C155.373 140.265 156.023 141.349 156.643 142.418C157.263 143.486 157.893 144.575 158.795 145.341C159.36 145.82 160.005 146.152 160.615 146.551C161.487 147.125 162.288 147.846 162.974 148.688L154.39 161.052C153.518 160.537 152.762 159.655 152.46 158.587C151.991 156.949 152.898 155.255 153.679 153.783C154.461 152.307 155.156 150.391 154.33 148.945C153.705 147.851 152.46 147.513 151.487 146.828C150.443 146.097 149.657 144.862 149.481 143.476C149.304 142.095 150.202 139.736 151.285 139.086Z" fill="#FF6D5C"/>
<path d="M158.795 145.341C158.004 144.665 157.419 143.738 156.87 142.801L153.327 147.906C153.725 148.174 154.088 148.496 154.34 148.945C155.166 150.391 154.471 152.307 153.69 153.783C152.908 155.26 152.001 156.949 152.47 158.587C152.772 159.655 153.528 160.537 154.4 161.052L162.984 148.688C162.293 147.846 161.497 147.125 160.625 146.551C160.015 146.147 159.37 145.82 158.805 145.341H158.795Z" fill="#FFE4C6"/>
<path d="M158.947 145.457C159.032 145.785 159.133 146.112 159.264 146.435C159.461 146.914 159.728 147.403 159.763 147.947C159.829 148.95 159.103 149.923 158.206 149.877C157.233 149.827 157.011 148.829 156.366 148.249C155.64 147.594 154.854 148.547 154.547 149.424C155.005 150.795 154.385 152.463 153.685 153.779C152.903 155.255 151.996 156.944 152.465 158.582C152.767 159.65 153.523 160.533 154.395 161.047L162.979 148.683C162.288 147.841 161.492 147.12 160.62 146.546C160.066 146.178 159.481 145.865 158.952 145.452L158.947 145.457Z" fill="#5B4565"/>
<path d="M155.569 151.676L153.397 151.964C153.211 151.989 153.039 151.833 153.019 151.621C152.999 151.409 153.135 151.213 153.321 151.187L155.494 150.9C155.68 150.875 155.852 151.031 155.872 151.243C155.892 151.455 155.756 151.651 155.569 151.676Z" fill="#FFE4C6"/>
<path d="M155.333 153.652L153.161 153.939C152.974 153.965 152.803 153.808 152.783 153.597C152.763 153.385 152.899 153.188 153.085 153.163L155.258 152.876C155.444 152.851 155.615 153.007 155.636 153.219C155.656 153.43 155.52 153.627 155.333 153.652Z" fill="#FFE4C6"/>
<path d="M163.135 148.955L154.521 161.364C154.29 161.702 153.856 161.757 153.564 161.49C153.271 161.223 153.221 160.729 153.453 160.391L162.067 147.982C162.299 147.644 162.732 147.589 163.024 147.856C163.317 148.123 163.367 148.617 163.135 148.955Z" fill="#FFE4C6"/>
<path d="M132.606 106.657C135.565 105.049 139.783 107.201 142.334 109.55C144.884 111.899 146.623 115.376 147.102 119.086C147.238 120.155 147.278 121.263 147.651 122.261C148.841 125.462 152.934 126.4 153.8 129.736C154.103 130.895 153.947 132.186 154.355 133.3C155.534 136.515 158.508 130.623 161.174 136.717L144.854 154.923C144.854 154.923 142.052 153.239 141.84 147.196C141.774 145.366 138.891 145.008 138.735 143.189C138.574 141.294 140.565 139.812 140.393 137.917C140.318 137.1 139.844 136.405 139.294 135.875C137.803 134.449 135.529 133.733 134.985 131.601C134.617 130.16 135.232 128.632 135.202 127.13C135.151 124.787 133.589 122.907 132.319 121.067C130.822 118.894 129.592 116.349 129.436 113.587C129.279 110.825 130.418 107.846 132.601 106.662L132.606 106.657Z" fill="#F09CF4"/>
<path d="M95.9229 85.3411C95.9531 84.8169 96.7495 84.8774 96.7495 84.8774C96.7495 84.8774 95.3483 84.6001 95.308 84.1969C95.2374 83.5618 97.0116 83.9751 97.0116 83.9751C97.0116 83.9751 95.0761 83.6072 95.308 82.952C95.5398 82.2967 97.3493 83.0679 97.3493 83.0679C97.3493 83.0679 94.31 81.6768 94.6023 81.1576C94.8947 80.6385 98.7455 82.5891 98.7455 82.5891C98.7455 82.5891 97.8332 80.5225 98.2213 80.2957C98.8765 79.9177 100.983 84.2272 100.983 84.2272L100.247 86.7725C100.247 86.7725 95.8876 85.8653 95.9128 85.3411H95.9229Z" fill="#FF6D5C"/>
<path d="M100.252 86.7725L108.262 89.8924L107.768 85.4973L100.565 84.1162L100.252 86.7725Z" fill="#FF6D5C"/>
<path d="M170.368 102.871C170.585 102.397 169.929 102.181 169.929 102.181C169.929 102.181 171.084 102.634 171.31 102.307C171.663 101.788 170.121 101.258 170.121 101.258C170.121 101.258 171.734 101.813 171.83 101.122C171.925 100.432 170.242 100.291 170.242 100.291C170.242 100.291 173.538 100.633 173.518 100.028C173.503 99.4237 169.239 99.1565 169.239 99.1565C169.239 99.1565 170.988 97.8158 170.751 97.4226C170.353 96.7573 166.527 99.4489 166.527 99.4489L166.003 102.05C166.003 102.05 170.161 103.355 170.378 102.876L170.368 102.871Z" fill="#FF6D5C"/>
<path d="M165.998 102.04L157.561 100.669L160.015 97.0798L166.946 99.5597L165.998 102.04Z" fill="#FF6D5C"/>
<path d="M120.918 146.026C121.926 146.535 122.485 147.841 122.556 149.101C122.626 150.361 122.288 151.596 121.951 152.795C121.613 153.995 121.26 155.225 121.296 156.485C121.316 157.276 121.492 158.052 121.593 158.834C121.739 159.958 121.739 161.102 121.593 162.226H107.979C107.793 161.137 107.929 159.932 108.463 159.01C109.284 157.594 110.983 157.357 112.46 157.145C113.937 156.933 115.655 156.369 116.124 154.756C116.482 153.531 115.948 152.231 115.812 150.951C115.666 149.585 116.018 148.128 116.845 147.125C117.672 146.122 119.814 145.467 120.918 146.026Z" fill="#FF6D5C"/>
<path d="M121.29 156.485C121.26 155.376 121.527 154.288 121.824 153.224H116.199C116.265 153.743 116.265 154.257 116.119 154.756C115.65 156.369 113.926 156.934 112.455 157.145C110.978 157.357 109.284 157.594 108.458 159.01C107.923 159.933 107.787 161.137 107.974 162.226H121.588C121.734 161.102 121.729 159.958 121.588 158.834C121.487 158.053 121.31 157.277 121.29 156.485Z" fill="#FFE4C6"/>
<path d="M121.306 156.697C121.134 156.974 120.978 157.261 120.842 157.574C120.635 158.042 120.474 158.577 120.126 158.945C119.486 159.615 118.387 159.575 117.868 158.753C117.309 157.866 117.843 157.06 117.843 156.132C117.843 155.089 116.714 154.978 115.933 155.245C115.287 156.49 113.78 156.964 112.46 157.155C110.983 157.367 109.29 157.604 108.463 159.02C107.929 159.943 107.793 161.147 107.979 162.236H121.593C121.739 161.112 121.734 159.968 121.593 158.844C121.497 158.128 121.351 157.423 121.311 156.702L121.306 156.697Z" fill="#5B4565"/>
<path d="M105.882 150.84C105.584 148.662 108.326 147.649 109.093 145.628C109.859 143.597 108.402 141.203 108.982 139.091C109.929 135.653 115.045 136.072 116.265 132.745C116.673 131.626 116.517 130.341 116.819 129.181C117.686 125.845 124.062 122.614 125.252 119.413C125.62 118.415 127.757 113.506 127.893 112.432C128.367 108.723 127.308 110.84 129.859 108.486C132.409 106.132 135.055 104.499 138.014 106.107C140.201 107.296 141.92 109.968 142.787 112.553C143.74 115.381 143.074 118.612 141.497 120.971C140.378 122.634 138.331 123.118 136.89 124.373C134.219 126.702 136.658 129.015 135.363 131.757C134.546 133.491 132.575 134.121 131.315 135.326C130.766 135.85 130.292 136.55 130.217 137.367C130.045 139.262 132.031 140.744 131.875 142.639C131.724 144.459 129.803 145.245 128.77 146.646C127.691 148.113 127.711 150.482 128.81 151.928H105.998" fill="#F09CF4"/>
<path d="M103.609 86.1826C104.264 83.5869 107.45 82.6443 109.925 83.2744C112.399 83.8994 114.531 85.5627 116.941 86.4296C120.983 87.8812 125.393 86.984 129.607 86.2633C133.821 85.5476 138.392 85.0838 142.132 87.2512C144.884 88.8439 146.92 91.7371 149.894 92.8157C152.147 93.6322 154.602 93.2794 156.981 93.2895C159.36 93.2996 161.996 93.8439 163.422 95.855C164.975 98.0425 164.305 101.596 162.072 102.987C159.778 104.413 156.85 103.526 154.415 102.377C152.651 101.546 150.943 100.593 149.294 99.5244C148.312 98.8893 147.324 98.1988 146.195 97.9518C145.066 97.7048 143.74 98.0123 143.1 99.0254C142.409 100.119 142.737 101.601 143.291 102.78C143.841 103.96 144.607 105.074 144.763 106.374C144.965 108.078 143.942 109.857 142.419 110.452C141.331 110.88 140.126 110.734 138.982 110.961C136.941 111.364 135.297 112.896 133.498 113.99C130.897 115.568 127.248 116.107 125.146 113.844C123.538 112.115 123.428 109.363 123.901 106.994C124.345 104.776 124.864 102.644 125.449 100.472C126.29 97.3419 125.035 96.0818 122.445 94.9982C121.074 94.4286 119.622 94.1111 118.17 93.8792C115.247 93.4105 112.263 93.3752 109.375 92.6846C107.838 92.3167 106.29 91.7522 105.116 90.6484C103.937 89.5445 103.201 87.7905 103.604 86.1826H103.609Z" fill="#F9EED2"/>
<path d="M136.376 86.5505C136.376 86.9336 135.337 87.2461 134.052 87.2461C132.767 87.2461 131.729 86.9336 131.729 86.5505C131.729 86.1675 132.767 85.855 134.052 85.855C135.337 85.855 136.376 86.1675 136.376 86.5505Z" fill="#FF6D5C"/>
<path d="M131.799 86.5051C132.288 86.1422 132.687 85.6432 132.944 85.0736C133.251 84.3932 133.357 83.627 133.458 82.8811C134.047 82.9063 134.677 82.75 135.267 82.7752C135.106 84.1462 135.489 85.4617 136.205 86.621L131.794 86.5051H131.799Z" fill="#FF6D5C"/>
<path d="M134.092 83.5214C132.711 83.5214 131.587 82.3923 131.587 81.0163V76.2179C131.587 74.8369 132.716 73.7129 134.092 73.7129C135.473 73.7129 136.597 74.8419 136.597 76.2179V81.0163C136.597 82.3974 135.468 83.5214 134.092 83.5214Z" fill="#FF6D5C"/>
<path d="M137.777 79.8622C137.777 80.5074 137.283 81.0316 136.673 81.0316C136.063 81.0316 135.569 80.5074 135.569 79.8622C135.569 79.2171 136.063 78.6929 136.673 78.6929C137.283 78.6929 137.777 79.2171 137.777 79.8622Z" fill="#FF6D5C"/>
<path d="M130.589 87.8055C130.983 87.9668 131.371 88.1231 131.764 88.2843C131.85 88.3196 131.981 88.2894 132.056 88.244C132.132 88.1987 132.207 88.1079 132.233 88.0172C132.253 87.9214 132.248 87.8106 132.192 87.7249C132.137 87.6392 132.061 87.5888 131.966 87.5485C131.572 87.3872 131.184 87.2309 130.791 87.0696C130.705 87.0343 130.574 87.0646 130.499 87.1099C130.423 87.1553 130.348 87.246 130.322 87.3368C130.302 87.4325 130.307 87.5434 130.363 87.6291C130.418 87.7148 130.494 87.7652 130.589 87.8055Z" fill="#E2C6AA"/>
<path d="M133.856 88.6625C135.454 88.9801 137.082 88.5516 138.342 87.5284C138.503 87.3974 138.478 87.1252 138.342 86.9942C138.185 86.8379 137.964 86.8631 137.807 86.9942C136.774 87.8309 135.368 88.1938 134.057 87.9317C133.584 87.8359 133.377 88.5668 133.856 88.6625Z" fill="#E2C6AA"/>
<path d="M127.904 104.318C130.802 102.806 133.03 100.23 134.265 97.2159C134.451 96.7673 133.715 96.5708 133.534 97.0143C132.374 99.847 130.237 102.246 127.521 103.662C127.087 103.889 127.47 104.545 127.904 104.318Z" fill="#E2C6AA"/>
<path d="M142.812 93.98C141.935 96.0767 141.734 98.4104 142.192 100.633C142.263 100.991 142.858 101.001 142.923 100.633C143.271 98.6725 144.118 96.8227 145.438 95.3257C145.761 94.9628 145.227 94.4235 144.904 94.7915C143.503 96.3842 142.565 98.3449 142.197 100.437H142.928C142.5 98.3399 142.727 96.1574 143.548 94.1866C143.735 93.738 143.004 93.5415 142.817 93.985L142.812 93.98Z" fill="#E2C6AA"/>
<path d="M123.765 92.4124C124.864 94.1815 125.504 96.1977 125.63 98.2743L126.376 98.1735C126.003 96.0364 124.612 94.0807 122.646 93.1382C122.208 92.9265 121.825 93.5817 122.263 93.7934C124.073 94.6604 125.302 96.4144 125.645 98.3751C125.721 98.7934 126.416 98.6977 126.391 98.2743C126.255 96.0666 125.59 93.9144 124.42 92.0344C124.163 91.621 123.508 91.9991 123.765 92.4174V92.4124Z" fill="#E2C6AA"/>
<path d="M115.036 157.523L113.513 155.784C113.382 155.633 113.382 155.391 113.513 155.24C113.644 155.089 113.856 155.089 113.987 155.24L115.509 156.979C115.64 157.13 115.64 157.372 115.509 157.523C115.378 157.675 115.167 157.675 115.036 157.523Z" fill="#FFE4C6"/>
<path d="M113.089 158.526L111.567 156.787C111.436 156.636 111.436 156.394 111.567 156.243C111.698 156.092 111.91 156.092 112.041 156.243L113.563 157.982C113.694 158.133 113.694 158.375 113.563 158.526C113.432 158.678 113.22 158.678 113.089 158.526Z" fill="#FFE4C6"/>
<path d="M121.103 161.934H106.88C106.462 161.934 106.124 162.272 106.124 162.69V162.79C106.124 163.208 106.462 163.546 106.88 163.546H121.103C121.521 163.546 121.859 163.208 121.859 162.79V162.69C121.859 162.272 121.521 161.934 121.103 161.934Z" fill="#FFE4C6"/>
<path d="M139.748 110.366C140.429 111.48 140.655 112.886 140.696 114.176C140.736 115.467 140.62 116.984 139.632 117.906C138.962 118.531 138.115 118.924 137.329 119.378C136.613 119.786 135.943 120.265 135.333 120.825C134.048 122.004 133.09 123.471 132.42 125.074C131.709 126.772 131.23 128.632 129.889 129.968C128.644 131.213 127.021 131.999 125.938 133.42C124.854 134.842 124.673 136.334 125.172 137.977C125.434 138.834 125.837 139.706 125.822 140.623C125.807 141.54 125.287 142.276 124.647 142.906C124.063 143.486 123.412 143.995 122.919 144.66C122.425 145.326 122.112 146.077 121.916 146.858C121.482 148.556 121.568 150.421 122.152 152.075C122.319 152.553 123.09 152.347 122.919 151.863C122.369 150.31 122.278 148.577 122.707 146.984C122.908 146.228 123.236 145.487 123.75 144.887C124.264 144.287 124.915 143.798 125.454 143.214C126.618 141.964 126.815 140.547 126.316 138.94C126.049 138.068 125.66 137.191 125.666 136.263C125.671 135.336 126.084 134.489 126.648 133.783C127.787 132.352 129.526 131.581 130.736 130.22C131.946 128.859 132.404 127.175 133.06 125.568C133.765 123.834 134.814 122.256 136.26 121.056C137.581 119.963 139.416 119.464 140.524 118.118C141.391 117.059 141.527 115.487 141.487 114.176C141.447 112.75 141.185 111.203 140.434 109.968C140.167 109.534 139.481 109.932 139.748 110.371V110.366Z" fill="#FFE4C6"/>
<path d="M137.52 112.478C138.367 113.788 137.737 115.542 136.749 116.601C135.625 117.805 133.972 118.355 132.676 119.338C130.328 121.117 129.451 124.05 128.15 126.565C127.48 127.861 126.673 129.015 125.539 129.947C124.491 130.809 123.312 131.535 122.485 132.639C121.552 133.889 121.411 135.386 121.517 136.898C121.638 138.602 121.981 140.361 121.174 141.959C120.791 142.72 120.257 143.385 119.778 144.086C119.239 144.872 118.785 145.724 118.453 146.621C117.802 148.38 117.792 150.235 118.427 151.999C118.599 152.478 119.37 152.271 119.194 151.787C118.533 149.963 118.634 148.103 119.42 146.334C120.086 144.837 121.25 143.662 121.941 142.19C122.631 140.719 122.5 139.126 122.354 137.533C122.208 135.94 122.172 134.202 123.312 132.861C124.254 131.752 125.56 131.041 126.613 130.058C127.666 129.076 128.367 127.891 128.987 126.646C129.642 125.336 130.187 123.975 130.902 122.694C131.678 121.313 132.636 120.225 133.997 119.398C135.434 118.526 137.016 117.815 137.934 116.334C138.715 115.068 139.037 113.39 138.191 112.08C137.913 111.651 137.228 112.049 137.505 112.483L137.52 112.478Z" fill="#FFE4C6"/>
<path d="M137.405 124.499C138.12 125.371 138.045 126.656 138.282 127.705C138.458 128.481 138.796 129.222 139.259 129.872C140.217 131.213 141.573 132.171 142.828 133.214C144.204 134.358 145.459 135.668 145.741 137.508C146.084 139.716 145.197 142.181 146.255 144.262C147.183 146.087 149.29 147.231 150.933 148.315C151.361 148.597 151.759 147.911 151.336 147.629C149.819 146.631 147.853 145.593 146.976 143.925C146.442 142.906 146.507 141.631 146.553 140.517C146.598 139.403 146.694 138.179 146.457 137.029C145.741 133.572 142.173 132.261 140.147 129.741C139.527 128.97 139.144 128.093 138.972 127.12C138.776 125.996 138.72 124.857 137.964 123.94C137.636 123.547 137.077 124.111 137.405 124.499Z" fill="#FFE4C6"/>
<path d="M153.518 144.534C151.457 144.101 150.348 142.322 150.212 140.3C150.076 138.279 150.338 136.475 150.05 134.555C149.793 132.826 149.088 131.167 147.636 130.114C146.089 128.99 143.624 128.723 142.813 126.762C142.455 125.89 142.555 124.862 142.429 123.945C142.288 122.942 141.92 122.085 141.079 121.48C140.66 121.183 140.267 121.868 140.675 122.165C142.243 123.289 141.411 125.633 142.137 127.186C143.019 129.076 145.086 129.519 146.739 130.472C148.498 131.485 149.163 133.39 149.35 135.311C149.536 137.231 149.173 139.267 149.526 141.188C149.894 143.214 151.255 144.862 153.306 145.295C153.805 145.401 154.017 144.635 153.518 144.529V144.534Z" fill="#FFE4C6"/>
<path d="M143.442 112.342C144.072 113.899 144.143 115.623 143.674 117.231C143.206 118.839 142.238 120.023 140.907 120.971C139.798 121.762 138.568 122.428 137.626 123.431C136.446 124.686 136.255 126.142 136.129 127.801C135.973 129.872 135.121 131.813 133.513 133.158C133.125 133.486 133.684 134.04 134.072 133.718C135.393 132.614 136.3 131.057 136.693 129.388C137.132 127.533 136.744 125.563 138.13 124.045C139.153 122.927 140.554 122.241 141.749 121.329C143.004 120.366 143.906 119.136 144.385 117.624C144.944 115.845 144.904 113.869 144.204 112.14C144.017 111.677 143.251 111.878 143.442 112.352V112.342Z" fill="#C373C9"/>
<path d="M123.634 107.508C123.654 109.63 124.229 111.873 125.827 113.365C127.243 114.686 129.148 115.124 130.968 114.434C132.787 113.743 134.229 112.332 135.937 111.419C137.948 110.346 140.348 110.462 142.369 109.408C144.214 108.451 145.484 106.319 144.566 104.287C144.365 103.844 143.715 104.227 143.911 104.67C144.763 106.561 143.115 108.32 141.477 108.985C139.723 109.701 137.772 109.731 136.043 110.517C133.246 111.792 130.353 115.487 127.041 113.36C125.086 112.105 124.405 109.706 124.385 107.503C124.385 107.014 123.624 107.014 123.629 107.503L123.634 107.508Z" fill="#E2C6AA"/>
<path d="M131.144 73.4156C129.859 74.1061 129.678 76.1575 130.545 77.3773C131.411 78.5971 132.974 79.0507 134.416 79.0053C135.534 78.965 136.714 78.6827 137.732 79.1817C139.239 79.9176 139.733 82.0446 141.195 82.8813C142.334 83.5366 143.922 83.1233 144.642 81.9791C145.01 81.3944 145.167 80.6686 145.605 80.1444C146.044 79.6202 146.986 79.4438 147.299 80.0638C146.941 79.1263 145.963 78.5971 145.035 78.839C144.108 79.0809 143.166 79.5648 142.233 79.3329C140.534 78.9096 140.02 76.4751 138.468 75.6283C137.319 75.0033 135.862 75.3914 134.703 74.7966C134.017 74.4438 133.518 73.7936 132.893 73.335C132.268 72.8763 131.825 73.0628 131.144 73.4257V73.4156Z" fill="#423245"/>
<path d="M132.958 74.6652C132.132 74.2872 131.3 73.8638 130.68 73.1733C130.06 72.4828 129.682 71.4798 129.929 70.5675C130.186 69.635 131.023 68.9999 131.885 68.6622C132.701 68.3396 133.724 68.259 134.349 68.8991C135.216 69.7862 134.783 71.4596 135.559 72.4425C136.25 73.3245 137.55 73.2338 138.513 73.763C139.863 74.509 140.488 76.4193 138.674 76.6108C137.036 76.7872 134.445 75.3356 132.963 74.6602L132.958 74.6652Z" fill="#FCA443"/>
<path d="M138.519 71.3386C137.072 71.3689 135.731 72.2257 135.036 73.4858C134.799 73.9142 135.454 74.2973 135.691 73.8689C135.978 73.3497 136.386 72.9062 136.891 72.5937C137.395 72.2812 137.944 72.1098 138.519 72.0997C139.007 72.0896 139.007 71.3336 138.519 71.3437V71.3386Z" fill="#FCA443"/>
<path d="M134.31 81.1423C134.209 81.5859 133.846 82.0496 133.468 82.0244C133.09 81.9992 132.797 81.6363 132.747 81.1776L134.31 81.1423Z" fill="#FAFAFA"/>
<path d="M129.698 116.616C127.868 116.374 126.26 117.624 125.151 118.945C123.972 120.351 123.095 122.07 121.547 123.128C121.149 123.4 121.527 124.061 121.931 123.784C123.387 122.791 124.294 121.284 125.348 119.913C126.401 118.542 127.863 117.135 129.703 117.377C130.187 117.443 130.182 116.682 129.703 116.621L129.698 116.616Z" fill="#C373C9"/>
<path d="M178.211 98.8486L170.731 108.284L170.806 110.32L168.705 110.845L179.42 121.344L190.711 106.953L178.211 98.8486Z" fill="#E2C6AA"/>
<path d="M170.731 108.284L182.591 117.342" stroke="#56415B" stroke-width="0.302419" stroke-linecap="round" stroke-linejoin="round"/>
<path d="M179.42 121.344L178.957 117.922L182.46 117.619" stroke="#56415B" stroke-width="0.302419" stroke-linecap="round" stroke-linejoin="round"/>
<path d="M170.807 110.321L178.957 117.921" stroke="#56415B" stroke-width="0.302419" stroke-linecap="round" stroke-linejoin="round"/>
<path d="M173.447 107.392C171.87 106.132 169.96 104.877 169.229 102.821C168.342 100.316 169.97 97.7501 172.5 98.5867C174.44 99.2319 176.099 100.915 177.535 102.367" stroke="#56415B" stroke-width="0.302419" stroke-linecap="round" stroke-linejoin="round"/>
<path d="M176.981 96.0464L173.987 106.782L174.743 108.446L173.79 109.333L185.71 114.338L190.181 98.0222L176.981 96.0464Z" fill="#FCA443"/>
<path d="M173.986 106.782L186.98 109.791" stroke="#56415B" stroke-width="0.277218" stroke-linecap="round" stroke-linejoin="round"/>
<path d="M185.71 114.338L184.148 111.666L186.965 110.074" stroke="#56415B" stroke-width="0.277218" stroke-linecap="round" stroke-linejoin="round"/>
<path d="M174.743 108.446L184.148 111.667" stroke="#56415B" stroke-width="0.277218" stroke-linecap="round" stroke-linejoin="round"/>
<path d="M175.943 104.993C174.194 104.545 172.172 104.232 170.857 102.796C169.254 101.047 169.733 98.2845 172.132 98.0173C173.972 97.8107 175.932 98.5818 177.626 99.2421" stroke="#56415B" stroke-width="0.277218" stroke-linecap="round" stroke-linejoin="round"/>
<path d="M92.5555 75.5827L92.4395 92.6089L90.6401 94.6805L92.4093 97.2258L72.2026 98.1583L72.5 72.3115L92.5555 75.5827Z" fill="#E2C6AA"/>
<path d="M91.3256 81.3945C93.2964 81.5911 95.5444 81.6012 97.1875 82.9419C99.1885 84.58 99.0827 87.6697 96.5071 88.3603C94.5363 88.8895 92.2883 88.3754 90.3428 87.9369" stroke="#56415B" stroke-width="0.302419" stroke-linecap="round" stroke-linejoin="round"/>
<path d="M92.4394 92.6091L72.2529 90.9458" stroke="#56415B" stroke-width="0.302419" stroke-linecap="round" stroke-linejoin="round"/>
<path d="M90.6401 94.6807L75.5947 94.9932" stroke="#56415B" stroke-width="0.302419" stroke-linecap="round" stroke-linejoin="round"/>
<path d="M72.1271 98.3048L75.6805 94.9882L72.0767 91.1777" stroke="#56415B" stroke-width="0.31754" stroke-linecap="round" stroke-linejoin="round"/>
<path d="M74.6894 233.255C72.2894 233.255 70.6574 231.467 70.6574 228.827C70.6574 226.187 72.3134 224.387 74.7374 224.387C76.5854 224.387 78.0374 225.503 78.3854 227.207H77.4614C77.1014 225.971 76.0454 225.215 74.7014 225.215C72.8174 225.215 71.5574 226.655 71.5574 228.827C71.5574 230.987 72.8174 232.427 74.7014 232.427C76.0574 232.427 77.1374 231.695 77.5094 230.543H78.4334C78.0374 232.163 76.5374 233.255 74.6894 233.255ZM83.8276 227.315H84.6556V233.123H83.9356L83.8276 232.139C83.5036 232.811 82.6996 233.267 81.7876 233.267C80.4196 233.267 79.6756 232.331 79.6756 230.915V227.303H80.5156V230.651C80.5156 232.031 81.1276 232.523 82.0516 232.523C83.1676 232.523 83.8276 231.779 83.8276 230.399V227.315ZM89.4164 227.243V227.987H88.9604C87.8924 227.987 87.2084 228.707 87.2084 229.811V233.123H86.3804V227.315H87.1604L87.2204 228.215C87.4484 227.591 88.0604 227.183 88.8764 227.183C89.0564 227.183 89.2124 227.195 89.4164 227.243ZM93.5531 227.243V227.987H93.0971C92.0291 227.987 91.3451 228.707 91.3451 229.811V233.123H90.5171V227.315H91.2971L91.3571 228.215C91.5851 227.591 92.1971 227.183 93.0131 227.183C93.1931 227.183 93.3491 227.195 93.5531 227.243ZM96.8672 233.267C95.1632 233.267 94.0232 232.043 94.0232 230.219C94.0232 228.407 95.1512 227.159 96.8072 227.159C98.3792 227.159 99.4472 228.275 99.4472 229.919V230.327H94.8272C94.8872 231.743 95.6312 232.559 96.8792 232.559C97.8272 232.559 98.4392 232.151 98.6552 231.383H99.4472C99.1352 232.607 98.2352 233.267 96.8672 233.267ZM96.8072 227.867C95.7152 227.867 94.9952 228.587 94.8512 229.727H98.6192C98.6192 228.611 97.8992 227.867 96.8072 227.867ZM101.599 233.123H100.771V227.315H101.491L101.611 228.323C101.995 227.579 102.763 227.159 103.603 227.159C105.199 227.159 105.859 228.107 105.859 229.571V233.123H105.031V229.751C105.031 228.395 104.419 227.915 103.459 227.915C102.271 227.915 101.599 228.779 101.599 230.087V233.123ZM108.841 233.123H108.025V228.011H106.861V227.315H108.025V225.479H108.841V227.315H110.005V228.011H108.841V233.123ZM111.948 233.123H111.12V224.375H111.948V233.123ZM113.121 235.655V234.971H113.757C114.261 234.971 114.765 234.935 115.053 234.155L115.305 233.471L112.953 227.315H113.829L115.701 232.379L117.537 227.315H118.389L115.725 234.455C115.389 235.367 114.825 235.739 113.997 235.739C113.649 235.739 113.385 235.715 113.121 235.655ZM123.909 233.123L121.989 227.315H122.841L123.981 230.819C124.113 231.203 124.221 231.599 124.341 232.067C124.437 231.599 124.629 231.011 124.689 230.819L125.841 227.315H126.693L127.833 230.819C127.941 231.131 128.085 231.635 128.193 232.067C128.313 231.587 128.337 231.443 128.541 230.819L129.693 227.315H130.557L128.589 233.123H127.785L126.585 229.475C126.441 229.043 126.345 228.683 126.273 228.335C126.189 228.647 126.093 228.995 125.937 229.475L124.737 233.123H123.909ZM130.926 230.219C130.926 228.443 132.174 227.159 133.878 227.159C135.582 227.159 136.83 228.443 136.83 230.219C136.83 231.983 135.582 233.267 133.878 233.267C132.174 233.267 130.926 231.983 130.926 230.219ZM131.766 230.207C131.766 231.575 132.63 232.523 133.878 232.523C135.114 232.523 135.99 231.575 135.99 230.207C135.99 228.863 135.114 227.903 133.878 227.903C132.63 227.903 131.766 228.863 131.766 230.207ZM141.19 227.243V227.987H140.734C139.666 227.987 138.982 228.707 138.982 229.811V233.123H138.154V227.315H138.934L138.994 228.215C139.222 227.591 139.834 227.183 140.65 227.183C140.83 227.183 140.986 227.195 141.19 227.243ZM143.155 233.123H142.327V224.375H143.155V230.315L146.035 227.315H147.079L144.847 229.631L147.091 233.123H146.131L144.283 230.219L143.155 231.383V233.123ZM148.488 225.719C148.152 225.719 147.876 225.443 147.876 225.107C147.876 224.771 148.152 224.483 148.488 224.483C148.824 224.483 149.112 224.771 149.112 225.107C149.112 225.443 148.824 225.719 148.488 225.719ZM148.08 233.123V227.315H148.908V233.123H148.08ZM151.462 233.123H150.634V227.315H151.354L151.474 228.323C151.858 227.579 152.626 227.159 153.466 227.159C155.062 227.159 155.722 228.107 155.722 229.571V233.123H154.894V229.751C154.894 228.395 154.282 227.915 153.322 227.915C152.134 227.915 151.462 228.779 151.462 230.087V233.123ZM156.977 230.051C156.977 228.467 157.997 227.159 159.701 227.159C160.709 227.159 161.477 227.627 161.849 228.479L161.933 227.315H162.653V232.943C162.653 234.671 161.549 235.799 159.845 235.799C158.357 235.799 157.313 234.959 157.085 233.555H157.913C158.093 234.491 158.813 235.043 159.857 235.043C161.045 235.043 161.837 234.239 161.837 233.027V231.647C161.441 232.463 160.637 232.943 159.641 232.943C157.985 232.943 156.977 231.635 156.977 230.051ZM157.805 230.039C157.805 231.227 158.537 232.199 159.761 232.199C161.021 232.199 161.765 231.287 161.765 230.039C161.765 228.803 161.045 227.891 159.773 227.891C158.525 227.891 157.805 228.863 157.805 230.039ZM167.301 230.219C167.301 228.443 168.549 227.159 170.253 227.159C171.957 227.159 173.205 228.443 173.205 230.219C173.205 231.983 171.957 233.267 170.253 233.267C168.549 233.267 167.301 231.983 167.301 230.219ZM168.141 230.207C168.141 231.575 169.005 232.523 170.253 232.523C171.489 232.523 172.365 231.575 172.365 230.207C172.365 228.863 171.489 227.903 170.253 227.903C169.005 227.903 168.141 228.863 168.141 230.207ZM175.357 233.123H174.529V227.315H175.249L175.369 228.323C175.753 227.579 176.521 227.159 177.361 227.159C178.957 227.159 179.617 228.107 179.617 229.571V233.123H178.789V229.751C178.789 228.395 178.177 227.915 177.217 227.915C176.029 227.915 175.357 228.779 175.357 230.087V233.123ZM184.187 230.219C184.187 228.443 185.435 227.159 187.139 227.159C188.843 227.159 190.091 228.443 190.091 230.219C190.091 231.983 188.843 233.267 187.139 233.267C185.435 233.267 184.187 231.983 184.187 230.219ZM185.027 230.207C185.027 231.575 185.891 232.523 187.139 232.523C188.375 232.523 189.251 231.575 189.251 230.207C189.251 228.863 188.375 227.903 187.139 227.903C185.891 227.903 185.027 228.863 185.027 230.207ZM195.355 227.315H196.183V233.123H195.463L195.355 232.139C195.031 232.811 194.227 233.267 193.315 233.267C191.947 233.267 191.203 232.331 191.203 230.915V227.303H192.043V230.651C192.043 232.031 192.655 232.523 193.579 232.523C194.695 232.523 195.355 231.779 195.355 230.399V227.315ZM200.944 227.243V227.987H200.488C199.42 227.987 198.736 228.707 198.736 229.811V233.123H197.908V227.315H198.688L198.748 228.215C198.976 227.591 199.588 227.183 200.404 227.183C200.584 227.183 200.74 227.195 200.944 227.243ZM204.881 231.491H205.673C205.673 232.163 206.177 232.583 206.993 232.583C207.893 232.583 208.421 232.199 208.421 231.575C208.421 231.095 208.181 230.819 207.497 230.651L206.501 230.399C205.493 230.147 205.001 229.619 205.001 228.827C205.001 227.807 205.853 227.159 207.101 227.159C208.325 227.159 209.117 227.831 209.153 228.911H208.349C208.325 228.239 207.857 227.843 207.077 227.843C206.261 227.843 205.805 228.191 205.805 228.815C205.805 229.259 206.117 229.571 206.753 229.727L207.749 229.979C208.757 230.231 209.213 230.699 209.213 231.539C209.213 232.583 208.325 233.267 207.005 233.267C205.697 233.267 204.881 232.571 204.881 231.491ZM211.404 233.111H210.576V224.375H211.404V228.323C211.776 227.627 212.484 227.159 213.456 227.159C214.98 227.159 215.664 228.107 215.664 229.571V233.123H214.836V229.751C214.836 228.395 214.2 227.915 213.3 227.915C212.052 227.915 211.404 228.839 211.404 229.955V233.111ZM216.906 230.219C216.906 228.443 218.154 227.159 219.858 227.159C221.562 227.159 222.81 228.443 222.81 230.219C222.81 231.983 221.562 233.267 219.858 233.267C218.154 233.267 216.906 231.983 216.906 230.219ZM217.746 230.207C217.746 231.575 218.61 232.523 219.858 232.523C221.094 232.523 221.97 231.575 221.97 230.207C221.97 228.863 221.094 227.903 219.858 227.903C218.61 227.903 217.746 228.863 217.746 230.207ZM224.134 235.655V227.315H224.854L224.938 228.491C225.346 227.591 226.162 227.159 227.134 227.159C228.814 227.159 229.822 228.443 229.822 230.195C229.822 231.947 228.85 233.267 227.134 233.267C226.15 233.267 225.37 232.847 224.962 232.007V235.655H224.134ZM224.974 230.219C224.974 231.551 225.718 232.523 226.99 232.523C228.25 232.523 228.982 231.551 228.982 230.219C228.982 228.875 228.25 227.915 226.99 227.915C225.718 227.915 224.974 228.875 224.974 230.219ZM235.694 233.123L233.774 227.315H234.626L235.766 230.819C235.898 231.203 236.006 231.599 236.126 232.067C236.222 231.599 236.414 231.011 236.474 230.819L237.626 227.315H238.478L239.618 230.819C239.726 231.131 239.87 231.635 239.978 232.067C240.098 231.587 240.122 231.443 240.326 230.819L241.478 227.315H242.342L240.374 233.123H239.57L238.37 229.475C238.226 229.043 238.13 228.683 238.058 228.335C237.974 228.647 237.878 228.995 237.722 229.475L236.522 233.123H235.694ZM244.204 233.111H243.376V224.375H244.204V228.323C244.576 227.627 245.284 227.159 246.256 227.159C247.78 227.159 248.464 228.107 248.464 229.571V233.123H247.636V229.751C247.636 228.395 247 227.915 246.1 227.915C244.852 227.915 244.204 228.839 244.204 229.955V233.111ZM252.551 233.267C250.847 233.267 249.707 232.043 249.707 230.219C249.707 228.407 250.835 227.159 252.491 227.159C254.063 227.159 255.131 228.275 255.131 229.919V230.327H250.511C250.571 231.743 251.315 232.559 252.563 232.559C253.511 232.559 254.123 232.151 254.339 231.383H255.131C254.819 232.607 253.919 233.267 252.551 233.267ZM252.491 227.867C251.399 227.867 250.679 228.587 250.535 229.727H254.303C254.303 228.611 253.583 227.867 252.491 227.867ZM259.491 227.243V227.987H259.035C257.967 227.987 257.283 228.707 257.283 229.811V233.123H256.455V227.315H257.235L257.295 228.215C257.523 227.591 258.135 227.183 258.951 227.183C259.131 227.183 259.287 227.195 259.491 227.243ZM262.805 233.267C261.101 233.267 259.961 232.043 259.961 230.219C259.961 228.407 261.089 227.159 262.745 227.159C264.317 227.159 265.385 228.275 265.385 229.919V230.327H260.765C260.825 231.743 261.569 232.559 262.817 232.559C263.765 232.559 264.377 232.151 264.593 231.383H265.385C265.073 232.607 264.173 233.267 262.805 233.267ZM262.745 227.867C261.653 227.867 260.933 228.587 260.789 229.727H264.557C264.557 228.611 263.837 227.867 262.745 227.867ZM271.261 233.123L269.341 227.315H270.193L271.333 230.819C271.465 231.203 271.573 231.599 271.693 232.067C271.789 231.599 271.981 231.011 272.041 230.819L273.193 227.315H274.045L275.185 230.819C275.293 231.131 275.437 231.635 275.545 232.067C275.665 231.587 275.689 231.443 275.893 230.819L277.045 227.315H277.909L275.941 233.123H275.137L273.937 229.475C273.793 229.043 273.697 228.683 273.625 228.335C273.541 228.647 273.445 228.995 273.289 229.475L272.089 233.123H271.261ZM281.121 233.267C279.417 233.267 278.277 232.043 278.277 230.219C278.277 228.407 279.405 227.159 281.061 227.159C282.633 227.159 283.701 228.275 283.701 229.919V230.327H279.081C279.141 231.743 279.885 232.559 281.133 232.559C282.081 232.559 282.693 232.151 282.909 231.383H283.701C283.389 232.607 282.489 233.267 281.121 233.267ZM281.061 227.867C279.969 227.867 279.249 228.587 279.105 229.727H282.873C282.873 228.611 282.153 227.867 281.061 227.867ZM287.861 231.491H288.653C288.653 232.163 289.157 232.583 289.973 232.583C290.873 232.583 291.401 232.199 291.401 231.575C291.401 231.095 291.161 230.819 290.477 230.651L289.481 230.399C288.473 230.147 287.981 229.619 287.981 228.827C287.981 227.807 288.833 227.159 290.081 227.159C291.305 227.159 292.097 227.831 292.133 228.911H291.329C291.305 228.239 290.837 227.843 290.057 227.843C289.241 227.843 288.785 228.191 288.785 228.815C288.785 229.259 289.097 229.571 289.733 229.727L290.729 229.979C291.737 230.231 292.193 230.699 292.193 231.539C292.193 232.583 291.305 233.267 289.985 233.267C288.677 233.267 287.861 232.571 287.861 231.491ZM295.992 233.267C294.288 233.267 293.148 232.043 293.148 230.219C293.148 228.407 294.276 227.159 295.932 227.159C297.504 227.159 298.572 228.275 298.572 229.919V230.327H293.952C294.012 231.743 294.756 232.559 296.004 232.559C296.952 232.559 297.564 232.151 297.78 231.383H298.572C298.26 232.607 297.36 233.267 295.992 233.267ZM295.932 227.867C294.84 227.867 294.12 228.587 293.976 229.727H297.744C297.744 228.611 297.024 227.867 295.932 227.867ZM300.76 233.123H299.932V224.375H300.76V233.123ZM303.385 233.123H302.557V224.375H303.385V233.123ZM69.9001 248.219C69.9001 246.443 71.1481 245.159 72.8521 245.159C74.5561 245.159 75.8041 246.443 75.8041 248.219C75.8041 249.983 74.5561 251.267 72.8521 251.267C71.1481 251.267 69.9001 249.983 69.9001 248.219ZM70.7401 248.207C70.7401 249.575 71.6041 250.523 72.8521 250.523C74.0881 250.523 74.9641 249.575 74.9641 248.207C74.9641 246.863 74.0881 245.903 72.8521 245.903C71.6041 245.903 70.7401 246.863 70.7401 248.207ZM81.0678 245.315H81.8958V251.123H81.1758L81.0678 250.139C80.7438 250.811 79.9398 251.267 79.0278 251.267C77.6598 251.267 76.9158 250.331 76.9158 248.915V245.303H77.7558V248.651C77.7558 250.031 78.3678 250.523 79.2918 250.523C80.4078 250.523 81.0678 249.779 81.0678 248.399V245.315ZM86.6566 245.243V245.987H86.2006C85.1326 245.987 84.4486 246.707 84.4486 247.811V251.123H83.6206V245.315H84.4006L84.4606 246.215C84.6886 245.591 85.3006 245.183 86.1166 245.183C86.2966 245.183 86.4526 245.195 86.6566 245.243ZM90.5935 249.491H91.3855C91.3855 250.163 91.8895 250.583 92.7055 250.583C93.6055 250.583 94.1335 250.199 94.1335 249.575C94.1335 249.095 93.8935 248.819 93.2095 248.651L92.2135 248.399C91.2055 248.147 90.7135 247.619 90.7135 246.827C90.7135 245.807 91.5655 245.159 92.8135 245.159C94.0375 245.159 94.8295 245.831 94.8655 246.911H94.0615C94.0375 246.239 93.5695 245.843 92.7895 245.843C91.9735 245.843 91.5175 246.191 91.5175 246.815C91.5175 247.259 91.8295 247.571 92.4655 247.727L93.4615 247.979C94.4695 248.231 94.9255 248.699 94.9255 249.539C94.9255 250.583 94.0375 251.267 92.7175 251.267C91.4095 251.267 90.5935 250.571 90.5935 249.491ZM95.8806 248.219C95.8806 246.443 97.1286 245.159 98.8326 245.159C100.537 245.159 101.785 246.443 101.785 248.219C101.785 249.983 100.537 251.267 98.8326 251.267C97.1286 251.267 95.8806 249.983 95.8806 248.219ZM96.7206 248.207C96.7206 249.575 97.5846 250.523 98.8326 250.523C100.069 250.523 100.945 249.575 100.945 248.207C100.945 246.863 100.069 245.903 98.8326 245.903C97.5846 245.903 96.7206 246.863 96.7206 248.207ZM107.048 245.315H107.876V251.123H107.156L107.048 250.139C106.724 250.811 105.92 251.267 105.008 251.267C103.64 251.267 102.896 250.331 102.896 248.915V245.303H103.736V248.651C103.736 250.031 104.348 250.523 105.272 250.523C106.388 250.523 107.048 249.779 107.048 248.399V245.315ZM111.221 251.123L108.845 245.315H109.733L111.233 249.059C111.389 249.479 111.545 249.875 111.653 250.259C111.761 249.863 111.917 249.479 112.085 249.059L113.609 245.315H114.461L112.049 251.123H111.221ZM117.615 251.267C115.911 251.267 114.771 250.043 114.771 248.219C114.771 246.407 115.899 245.159 117.555 245.159C119.127 245.159 120.195 246.275 120.195 247.919V248.327H115.575C115.635 249.743 116.379 250.559 117.627 250.559C118.575 250.559 119.187 250.151 119.403 249.383H120.195C119.883 250.607 118.983 251.267 117.615 251.267ZM117.555 245.867C116.463 245.867 115.743 246.587 115.599 247.727H119.367C119.367 246.611 118.647 245.867 117.555 245.867ZM122.347 251.123H121.519V245.315H122.239L122.359 246.323C122.743 245.579 123.511 245.159 124.351 245.159C125.947 245.159 126.607 246.107 126.607 247.571V251.123H125.779V247.751C125.779 246.395 125.167 245.915 124.207 245.915C123.019 245.915 122.347 246.779 122.347 248.087V251.123ZM128.665 243.719C128.329 243.719 128.053 243.443 128.053 243.107C128.053 242.771 128.329 242.483 128.665 242.483C129.001 242.483 129.289 242.771 129.289 243.107C129.289 243.443 129.001 243.719 128.665 243.719ZM128.257 251.123V245.315H129.085V251.123H128.257ZM133.848 245.243V245.987H133.392C132.324 245.987 131.64 246.707 131.64 247.811V251.123H130.812V245.315H131.592L131.652 246.215C131.88 245.591 132.492 245.183 133.308 245.183C133.488 245.183 133.644 245.195 133.848 245.243ZM134.457 249.491H135.249C135.249 250.163 135.753 250.583 136.569 250.583C137.469 250.583 137.997 250.199 137.997 249.575C137.997 249.095 137.757 248.819 137.073 248.651L136.077 248.399C135.069 248.147 134.577 247.619 134.577 246.827C134.577 245.807 135.429 245.159 136.677 245.159C137.901 245.159 138.693 245.831 138.729 246.911H137.925C137.901 246.239 137.433 245.843 136.653 245.843C135.837 245.843 135.381 246.191 135.381 246.815C135.381 247.259 135.693 247.571 136.329 247.727L137.325 247.979C138.333 248.231 138.789 248.699 138.789 249.539C138.789 250.583 137.901 251.267 136.581 251.267C135.273 251.267 134.457 250.571 134.457 249.491ZM141.522 250.715C141.522 251.459 140.946 252.107 140.202 252.215V251.771C140.634 251.699 140.946 251.387 140.946 251.051C140.874 251.099 140.778 251.135 140.634 251.135C140.298 251.135 140.01 250.895 140.01 250.487C140.01 250.067 140.298 249.767 140.718 249.767C141.15 249.767 141.522 250.115 141.522 250.715ZM147.355 251.111H146.527V242.375H147.355V246.323C147.727 245.627 148.435 245.159 149.407 245.159C150.931 245.159 151.615 246.107 151.615 247.571V251.123H150.787V247.751C150.787 246.395 150.151 245.915 149.251 245.915C148.003 245.915 147.355 246.839 147.355 247.955V251.111ZM154.933 251.267C153.697 251.267 152.965 250.571 152.965 249.551C152.965 248.483 153.781 247.811 155.137 247.703L157.057 247.547V247.355C157.057 246.215 156.373 245.855 155.521 245.855C154.513 245.855 153.913 246.311 153.913 247.091H153.157C153.157 245.915 154.117 245.159 155.545 245.159C156.889 245.159 157.873 245.831 157.873 247.367V251.123H157.177L157.069 250.103C156.709 250.835 155.917 251.267 154.933 251.267ZM155.125 250.595C156.349 250.595 157.057 249.743 157.057 248.483V248.171L155.341 248.303C154.249 248.399 153.805 248.879 153.805 249.527C153.805 250.235 154.333 250.595 155.125 250.595ZM160.363 251.123H159.535V245.315H160.255L160.375 246.323C160.759 245.579 161.527 245.159 162.367 245.159C163.963 245.159 164.623 246.107 164.623 247.571V251.123H163.795V247.751C163.795 246.395 163.183 245.915 162.223 245.915C161.035 245.915 160.363 246.779 160.363 248.087V251.123ZM168.553 251.267C166.861 251.267 165.865 249.971 165.865 248.231C165.865 246.479 166.861 245.159 168.589 245.159C169.549 245.159 170.317 245.579 170.725 246.419V242.375H171.553V251.123H170.833L170.749 249.935C170.341 250.835 169.525 251.267 168.553 251.267ZM168.697 250.511C169.969 250.511 170.713 249.551 170.713 248.207C170.713 246.875 169.969 245.903 168.697 245.903C167.437 245.903 166.705 246.875 166.705 248.207C166.705 249.551 167.437 250.511 168.697 250.511ZM173.689 243.719C173.353 243.719 173.077 243.443 173.077 243.107C173.077 242.771 173.353 242.483 173.689 242.483C174.025 242.483 174.313 242.771 174.313 243.107C174.313 243.443 174.025 243.719 173.689 243.719ZM173.281 251.123V245.315H174.109V251.123H173.281ZM175.427 248.231C175.427 246.407 176.543 245.159 178.235 245.159C179.579 245.159 180.563 245.939 180.791 247.139H179.963C179.747 246.335 179.051 245.891 178.247 245.891C177.071 245.891 176.243 246.791 176.243 248.219C176.243 249.599 177.011 250.523 178.187 250.523C179.051 250.523 179.747 250.043 179.975 249.299H180.815C180.539 250.487 179.507 251.267 178.187 251.267C176.543 251.267 175.427 250.055 175.427 248.231ZM185.106 245.243V245.987H184.65C183.582 245.987 182.898 246.707 182.898 247.811V251.123H182.07V245.315H182.85L182.91 246.215C183.138 245.591 183.75 245.183 184.566 245.183C184.746 245.183 184.902 245.195 185.106 245.243ZM187.64 251.267C186.404 251.267 185.672 250.571 185.672 249.551C185.672 248.483 186.488 247.811 187.844 247.703L189.764 247.547V247.355C189.764 246.215 189.08 245.855 188.228 245.855C187.22 245.855 186.62 246.311 186.62 247.091H185.864C185.864 245.915 186.824 245.159 188.252 245.159C189.596 245.159 190.58 245.831 190.58 247.367V251.123H189.884L189.776 250.103C189.416 250.835 188.624 251.267 187.64 251.267ZM187.832 250.595C189.056 250.595 189.764 249.743 189.764 248.483V248.171L188.048 248.303C186.956 248.399 186.512 248.879 186.512 249.527C186.512 250.235 187.04 250.595 187.832 250.595ZM197.055 251.123H196.239V246.011H193.263V251.123H192.435V246.011H191.547V245.315H192.435V244.187C192.435 242.879 193.143 242.375 194.007 242.375C194.211 242.375 194.463 242.387 194.655 242.423V243.143H194.151C193.455 243.143 193.263 243.503 193.263 244.187V245.315H196.239V243.479H197.055V245.315H198.219V246.011H197.055V251.123ZM198.804 249.491H199.596C199.596 250.163 200.1 250.583 200.916 250.583C201.816 250.583 202.344 250.199 202.344 249.575C202.344 249.095 202.104 248.819 201.42 248.651L200.424 248.399C199.416 248.147 198.924 247.619 198.924 246.827C198.924 245.807 199.776 245.159 201.024 245.159C202.248 245.159 203.04 245.831 203.076 246.911H202.272C202.248 246.239 201.78 245.843 201 245.843C200.184 245.843 199.728 246.191 199.728 246.815C199.728 247.259 200.04 247.571 200.676 247.727L201.672 247.979C202.68 248.231 203.136 248.699 203.136 249.539C203.136 250.583 202.248 251.267 200.928 251.267C199.62 251.267 198.804 250.571 198.804 249.491ZM205.87 250.715C205.87 251.459 205.294 252.107 204.55 252.215V251.771C204.982 251.699 205.294 251.387 205.294 251.051C205.222 251.099 205.126 251.135 204.982 251.135C204.646 251.135 204.358 250.895 204.358 250.487C204.358 250.067 204.646 249.767 205.066 249.767C205.498 249.767 205.87 250.115 205.87 250.715ZM212.207 251.123H211.391V246.011H210.227V245.315H211.391V243.479H212.207V245.315H213.371V246.011H212.207V251.123ZM217.485 245.243V245.987H217.029C215.961 245.987 215.277 246.707 215.277 247.811V251.123H214.449V245.315H215.229L215.289 246.215C215.517 245.591 216.129 245.183 216.945 245.183C217.125 245.183 217.281 245.195 217.485 245.243ZM220.019 251.267C218.783 251.267 218.051 250.571 218.051 249.551C218.051 248.483 218.867 247.811 220.223 247.703L222.143 247.547V247.355C222.143 246.215 221.459 245.855 220.607 245.855C219.599 245.855 218.999 246.311 218.999 247.091H218.243C218.243 245.915 219.203 245.159 220.631 245.159C221.975 245.159 222.959 245.831 222.959 247.367V251.123H222.263L222.155 250.103C221.795 250.835 221.003 251.267 220.019 251.267ZM220.211 250.595C221.435 250.595 222.143 249.743 222.143 248.483V248.171L220.427 248.303C219.335 248.399 218.891 248.879 218.891 249.527C218.891 250.235 219.419 250.595 220.211 250.595ZM226.006 251.123L223.63 245.315H224.518L226.018 249.059C226.174 249.479 226.33 249.875 226.438 250.259C226.546 249.863 226.702 249.479 226.87 249.059L228.394 245.315H229.246L226.834 251.123H226.006ZM232.4 251.267C230.696 251.267 229.556 250.043 229.556 248.219C229.556 246.407 230.684 245.159 232.34 245.159C233.912 245.159 234.98 246.275 234.98 247.919V248.327H230.36C230.42 249.743 231.164 250.559 232.412 250.559C233.36 250.559 233.972 250.151 234.188 249.383H234.98C234.668 250.607 233.768 251.267 232.4 251.267ZM232.34 245.867C231.248 245.867 230.528 246.587 230.384 247.727H234.152C234.152 246.611 233.432 245.867 232.34 245.867ZM237.168 251.123H236.34V242.375H237.168V251.123ZM243.925 251.267C242.689 251.267 241.957 250.571 241.957 249.551C241.957 248.483 242.773 247.811 244.129 247.703L246.049 247.547V247.355C246.049 246.215 245.365 245.855 244.513 245.855C243.505 245.855 242.905 246.311 242.905 247.091H242.149C242.149 245.915 243.109 245.159 244.537 245.159C245.881 245.159 246.865 245.831 246.865 247.367V251.123H246.169L246.061 250.103C245.701 250.835 244.909 251.267 243.925 251.267ZM244.117 250.595C245.341 250.595 246.049 249.743 246.049 248.483V248.171L244.333 248.303C243.241 248.399 242.797 248.879 242.797 249.527C242.797 250.235 243.325 250.595 244.117 250.595ZM248.119 248.231C248.119 246.407 249.235 245.159 250.927 245.159C252.271 245.159 253.255 245.939 253.483 247.139H252.655C252.439 246.335 251.743 245.891 250.939 245.891C249.763 245.891 248.935 246.791 248.935 248.219C248.935 249.599 249.703 250.523 250.879 250.523C251.743 250.523 252.439 250.043 252.667 249.299H253.507C253.231 250.487 252.199 251.267 250.879 251.267C249.235 251.267 248.119 250.055 248.119 248.231ZM254.353 248.231C254.353 246.407 255.469 245.159 257.161 245.159C258.505 245.159 259.489 245.939 259.717 247.139H258.889C258.673 246.335 257.977 245.891 257.173 245.891C255.997 245.891 255.169 246.791 255.169 248.219C255.169 249.599 255.937 250.523 257.113 250.523C257.977 250.523 258.673 250.043 258.901 249.299H259.741C259.465 250.487 258.433 251.267 257.113 251.267C255.469 251.267 254.353 250.055 254.353 248.231ZM263.432 251.267C261.728 251.267 260.588 250.043 260.588 248.219C260.588 246.407 261.716 245.159 263.372 245.159C264.944 245.159 266.012 246.275 266.012 247.919V248.327H261.392C261.452 249.743 262.196 250.559 263.444 250.559C264.392 250.559 265.004 250.151 265.22 249.383H266.012C265.7 250.607 264.8 251.267 263.432 251.267ZM263.372 245.867C262.28 245.867 261.56 246.587 261.416 247.727H265.184C265.184 246.611 264.464 245.867 263.372 245.867ZM266.843 249.491H267.635C267.635 250.163 268.139 250.583 268.955 250.583C269.855 250.583 270.383 250.199 270.383 249.575C270.383 249.095 270.143 248.819 269.459 248.651L268.463 248.399C267.455 248.147 266.963 247.619 266.963 246.827C266.963 245.807 267.815 245.159 269.063 245.159C270.287 245.159 271.079 245.831 271.115 246.911H270.311C270.287 246.239 269.819 245.843 269.039 245.843C268.223 245.843 267.767 246.191 267.767 246.815C267.767 247.259 268.079 247.571 268.715 247.727L269.711 247.979C270.719 248.231 271.175 248.699 271.175 249.539C271.175 250.583 270.287 251.267 268.967 251.267C267.659 251.267 266.843 250.571 266.843 249.491ZM272.047 249.491H272.839C272.839 250.163 273.343 250.583 274.159 250.583C275.059 250.583 275.587 250.199 275.587 249.575C275.587 249.095 275.347 248.819 274.663 248.651L273.667 248.399C272.659 248.147 272.167 247.619 272.167 246.827C272.167 245.807 273.019 245.159 274.267 245.159C275.491 245.159 276.283 245.831 276.319 246.911H275.515C275.491 246.239 275.023 245.843 274.243 245.843C273.427 245.843 272.971 246.191 272.971 246.815C272.971 247.259 273.283 247.571 273.919 247.727L274.915 247.979C275.923 248.231 276.379 248.699 276.379 249.539C276.379 250.583 275.491 251.267 274.171 251.267C272.863 251.267 272.047 250.571 272.047 249.491ZM277.334 248.219C277.334 246.443 278.582 245.159 280.286 245.159C281.99 245.159 283.238 246.443 283.238 248.219C283.238 249.983 281.99 251.267 280.286 251.267C278.582 251.267 277.334 249.983 277.334 248.219ZM278.174 248.207C278.174 249.575 279.038 250.523 280.286 250.523C281.522 250.523 282.398 249.575 282.398 248.207C282.398 246.863 281.522 245.903 280.286 245.903C279.038 245.903 278.174 246.863 278.174 248.207ZM287.598 245.243V245.987H287.142C286.074 245.987 285.39 246.707 285.39 247.811V251.123H284.562V245.315H285.342L285.402 246.215C285.63 245.591 286.242 245.183 287.058 245.183C287.238 245.183 287.394 245.195 287.598 245.243ZM289.107 243.719C288.771 243.719 288.495 243.443 288.495 243.107C288.495 242.771 288.771 242.483 289.107 242.483C289.443 242.483 289.731 242.771 289.731 243.107C289.731 243.443 289.443 243.719 289.107 243.719ZM288.699 251.123V245.315H289.527V251.123H288.699ZM293.689 251.267C291.985 251.267 290.845 250.043 290.845 248.219C290.845 246.407 291.973 245.159 293.629 245.159C295.201 245.159 296.269 246.275 296.269 247.919V248.327H291.649C291.709 249.743 292.453 250.559 293.701 250.559C294.649 250.559 295.261 250.151 295.477 249.383H296.269C295.957 250.607 295.057 251.267 293.689 251.267ZM293.629 245.867C292.537 245.867 291.817 246.587 291.673 247.727H295.441C295.441 246.611 294.721 245.867 293.629 245.867ZM297.101 249.491H297.893C297.893 250.163 298.397 250.583 299.213 250.583C300.113 250.583 300.641 250.199 300.641 249.575C300.641 249.095 300.401 248.819 299.717 248.651L298.721 248.399C297.713 248.147 297.221 247.619 297.221 246.827C297.221 245.807 298.073 245.159 299.321 245.159C300.545 245.159 301.337 245.831 301.373 246.911H300.569C300.545 246.239 300.077 245.843 299.297 245.843C298.481 245.843 298.025 246.191 298.025 246.815C298.025 247.259 298.337 247.571 298.973 247.727L299.969 247.979C300.977 248.231 301.433 248.699 301.433 249.539C301.433 250.583 300.545 251.267 299.225 251.267C297.917 251.267 297.101 250.571 297.101 249.491ZM304.167 250.715C304.167 251.459 303.591 252.107 302.847 252.215V251.771C303.279 251.699 303.591 251.387 303.591 251.051C303.519 251.099 303.423 251.135 303.279 251.135C302.943 251.135 302.655 250.895 302.655 250.487C302.655 250.067 302.943 249.767 303.363 249.767C303.795 249.767 304.167 250.115 304.167 250.715ZM157.318 269.267C156.082 269.267 155.35 268.571 155.35 267.551C155.35 266.483 156.166 265.811 157.522 265.703L159.442 265.547V265.355C159.442 264.215 158.758 263.855 157.906 263.855C156.898 263.855 156.298 264.311 156.298 265.091H155.542C155.542 263.915 156.502 263.159 157.93 263.159C159.274 263.159 160.258 263.831 160.258 265.367V269.123H159.562L159.454 268.103C159.094 268.835 158.302 269.267 157.318 269.267ZM157.51 268.595C158.734 268.595 159.442 267.743 159.442 266.483V266.171L157.726 266.303C156.634 266.399 156.19 266.879 156.19 267.527C156.19 268.235 156.718 268.595 157.51 268.595ZM162.747 269.123H161.919V263.315H162.639L162.759 264.323C163.143 263.579 163.911 263.159 164.751 263.159C166.347 263.159 167.007 264.107 167.007 265.571V269.123H166.179V265.751C166.179 264.395 165.567 263.915 164.607 263.915C163.419 263.915 162.747 264.779 162.747 266.087V269.123ZM170.938 269.267C169.246 269.267 168.25 267.971 168.25 266.231C168.25 264.479 169.246 263.159 170.974 263.159C171.934 263.159 172.702 263.579 173.11 264.419V260.375H173.938V269.123H173.218L173.134 267.935C172.726 268.835 171.91 269.267 170.938 269.267ZM171.082 268.511C172.354 268.511 173.098 267.551 173.098 266.207C173.098 264.875 172.354 263.903 171.082 263.903C169.822 263.903 169.09 264.875 169.09 266.207C169.09 267.551 169.822 268.511 171.082 268.511ZM179.822 269.123H178.994V263.315H179.714L179.81 264.143C180.098 263.531 180.746 263.159 181.562 263.159C182.474 263.159 183.158 263.639 183.434 264.395C183.698 263.639 184.406 263.159 185.342 263.159C186.602 263.159 187.43 263.975 187.43 265.319V269.123H186.626V265.487C186.626 264.491 186.074 263.903 185.186 263.903C184.214 263.903 183.638 264.635 183.638 265.535V269.123H182.822V265.475C182.822 264.491 182.258 263.915 181.382 263.915C180.41 263.915 179.822 264.635 179.822 265.523V269.123ZM191.531 269.267C189.827 269.267 188.687 268.043 188.687 266.219C188.687 264.407 189.815 263.159 191.471 263.159C193.043 263.159 194.111 264.275 194.111 265.919V266.327H189.491C189.551 267.743 190.295 268.559 191.543 268.559C192.491 268.559 193.103 268.151 193.319 267.383H194.111C193.799 268.607 192.899 269.267 191.531 269.267ZM191.471 263.867C190.379 263.867 189.659 264.587 189.515 265.727H193.283C193.283 264.611 192.563 263.867 191.471 263.867ZM198.471 263.243V263.987H198.015C196.947 263.987 196.263 264.707 196.263 265.811V269.123H195.435V263.315H196.215L196.275 264.215C196.503 263.591 197.115 263.183 197.931 263.183C198.111 263.183 198.267 263.195 198.471 263.243ZM198.941 266.231C198.941 264.407 200.057 263.159 201.749 263.159C203.093 263.159 204.077 263.939 204.305 265.139H203.477C203.261 264.335 202.565 263.891 201.761 263.891C200.585 263.891 199.757 264.791 199.757 266.219C199.757 267.599 200.525 268.523 201.701 268.523C202.565 268.523 203.261 268.043 203.489 267.299H204.329C204.053 268.487 203.021 269.267 201.701 269.267C200.057 269.267 198.941 268.055 198.941 266.231ZM206.412 269.111H205.584V260.375H206.412V264.323C206.784 263.627 207.492 263.159 208.464 263.159C209.988 263.159 210.672 264.107 210.672 265.571V269.123H209.844V265.751C209.844 264.395 209.208 263.915 208.308 263.915C207.06 263.915 206.412 264.839 206.412 265.955V269.111ZM211.759 267.491H212.551C212.551 268.163 213.055 268.583 213.871 268.583C214.771 268.583 215.299 268.199 215.299 267.575C215.299 267.095 215.059 266.819 214.375 266.651L213.379 266.399C212.371 266.147 211.879 265.619 211.879 264.827C211.879 263.807 212.731 263.159 213.979 263.159C215.203 263.159 215.995 263.831 216.031 264.911H215.227C215.203 264.239 214.735 263.843 213.955 263.843C213.139 263.843 212.683 264.191 212.683 264.815C212.683 265.259 212.995 265.571 213.631 265.727L214.627 265.979C215.635 266.231 216.091 266.699 216.091 267.539C216.091 268.583 215.203 269.267 213.883 269.267C212.575 269.267 211.759 268.571 211.759 267.491ZM218.069 269.255C217.661 269.255 217.313 268.919 217.313 268.523C217.313 268.115 217.661 267.767 218.069 267.767C218.477 267.767 218.825 268.115 218.825 268.523C218.825 268.919 218.477 269.255 218.069 269.255Z" fill="#666666"/>
<defs>
<filter id="filter0_f_228_4680" x="-20.0517" y="23.8298" width="251.479" height="237.117" filterUnits="userSpaceOnUse" color-interpolation-filters="sRGB">
<feFlood flood-opacity="0" result="BackgroundImageFix"/>
<feBlend mode="normal" in="SourceGraphic" in2="BackgroundImageFix" result="shape"/>
<feGaussianBlur stdDeviation="27.6672" result="effect1_foregroundBlur_228_4680"/>
</filter>
<filter id="filter1_f_228_4680" x="-14.9331" y="115.8" width="141.664" height="132.631" filterUnits="userSpaceOnUse" color-interpolation-filters="sRGB">
<feFlood flood-opacity="0" result="BackgroundImageFix"/>
<feBlend mode="normal" in="SourceGraphic" in2="BackgroundImageFix" result="shape"/>
<feGaussianBlur stdDeviation="27.6672" result="effect1_foregroundBlur_228_4680"/>
</filter>
<filter id="filter2_f_228_4680" x="16.3101" y="8.02003" width="247.595" height="244.629" filterUnits="userSpaceOnUse" color-interpolation-filters="sRGB">
<feFlood flood-opacity="0" result="BackgroundImageFix"/>
<feBlend mode="normal" in="SourceGraphic" in2="BackgroundImageFix" result="shape"/>
<feGaussianBlur stdDeviation="27.6672" result="effect1_foregroundBlur_228_4680"/>
</filter>
<filter id="filter3_f_228_4680" x="93.3323" y="0.45536" width="248.249" height="259.166" filterUnits="userSpaceOnUse" color-interpolation-filters="sRGB">
<feFlood flood-opacity="0" result="BackgroundImageFix"/>
<feBlend mode="normal" in="SourceGraphic" in2="BackgroundImageFix" result="shape"/>
<feGaussianBlur stdDeviation="28.7254" result="effect1_foregroundBlur_228_4680"/>
</filter>
<filter id="filter4_f_228_4680" x="87.9241" y="88.8648" width="146.234" height="139.127" filterUnits="userSpaceOnUse" color-interpolation-filters="sRGB">
<feFlood flood-opacity="0" result="BackgroundImageFix"/>
<feBlend mode="normal" in="SourceGraphic" in2="BackgroundImageFix" result="shape"/>
<feGaussianBlur stdDeviation="28.7254" result="effect1_foregroundBlur_228_4680"/>
</filter>
<filter id="filter5_f_228_4680" x="123.609" y="1.75614" width="264.765" height="240.213" filterUnits="userSpaceOnUse" color-interpolation-filters="sRGB">
<feFlood flood-opacity="0" result="BackgroundImageFix"/>
<feBlend mode="normal" in="SourceGraphic" in2="BackgroundImageFix" result="shape"/>
<feGaussianBlur stdDeviation="28.7254" result="effect1_foregroundBlur_228_4680"/>
</filter>
</defs>
</svg>
