<svg width="32" height="19" viewBox="0 0 32 19" fill="none" xmlns="http://www.w3.org/2000/svg">
<path d="M1.39753 0.328956C1.09681 0.263654 0.799051 0.45437 0.744598 0.757241C0.37269 2.82579 0.425026 4.95041 0.900694 7.00157C1.41836 9.23383 2.42454 11.3235 3.84679 13.1203C5.26904 14.917 7.07197 16.376 9.12579 17.3923C11.1796 18.4085 13.4332 18.9568 15.7244 18.9975C18.0155 19.0383 20.2872 18.5705 22.3758 17.6279C24.4645 16.6853 26.3182 15.2914 27.8034 13.5464C29.2887 11.8014 30.3685 9.74875 30.9652 7.5363C31.5135 5.50336 31.6414 3.38194 31.3433 1.30148C31.2996 0.996863 31.0088 0.795678 30.706 0.850248C30.4032 0.904815 30.203 1.19446 30.2458 1.4992C30.5152 3.41738 30.3947 5.37224 29.8893 7.24611C29.3355 9.29949 28.3333 11.2045 26.9548 12.8241C25.5763 14.4436 23.8559 15.7374 21.9174 16.6122C19.9789 17.487 17.8706 17.9212 15.7442 17.8833C13.6178 17.8455 11.5262 17.3367 9.62002 16.3935C7.71386 15.4503 6.04054 14.0962 4.72055 12.4286C3.40055 10.7611 2.46671 8.8216 1.98626 6.74982C1.54781 4.85916 1.4969 2.90125 1.83436 0.993863C1.88797 0.690843 1.69825 0.39426 1.39753 0.328956Z" fill="#EBAF15"/>
</svg>
